%TF.GenerationSoftware,KiCad,Pcbnew,10.0.1*%
%TF.CreationDate,2026-05-10T15:42:31+10:00*%
%TF.ProjectId,Clipoz,436c6970-6f7a-42e6-9b69-6361645f7063,rev?*%
%TF.SameCoordinates,Original*%
%TF.FileFunction,Paste,Top*%
%TF.FilePolarity,Positive*%
%FSLAX46Y46*%
G04 Gerber Fmt 4.6, Leading zero omitted, Abs format (unit mm)*
G04 Created by KiCad (PCBNEW 10.0.1) date 2026-05-10 15:42:31*
%MOMM*%
%LPD*%
G01*
G04 APERTURE LIST*
G04 Aperture macros list*
%AMRoundRect*
0 Rectangle with rounded corners*
0 $1 Rounding radius*
0 $2 $3 $4 $5 $6 $7 $8 $9 X,Y pos of 4 corners*
0 Add a 4 corners polygon primitive as box body*
4,1,4,$2,$3,$4,$5,$6,$7,$8,$9,$2,$3,0*
0 Add four circle primitives for the rounded corners*
1,1,$1+$1,$2,$3*
1,1,$1+$1,$4,$5*
1,1,$1+$1,$6,$7*
1,1,$1+$1,$8,$9*
0 Add four rect primitives between the rounded corners*
20,1,$1+$1,$2,$3,$4,$5,0*
20,1,$1+$1,$4,$5,$6,$7,0*
20,1,$1+$1,$6,$7,$8,$9,0*
20,1,$1+$1,$8,$9,$2,$3,0*%
G04 Aperture macros list end*
%ADD10RoundRect,0.375000X-0.625000X-0.375000X0.625000X-0.375000X0.625000X0.375000X-0.625000X0.375000X0*%
%ADD11RoundRect,0.500000X-0.500000X-1.400000X0.500000X-1.400000X0.500000X1.400000X-0.500000X1.400000X0*%
%ADD12RoundRect,0.160000X-0.197500X-0.160000X0.197500X-0.160000X0.197500X0.160000X-0.197500X0.160000X0*%
%ADD13RoundRect,0.155000X-0.212500X-0.155000X0.212500X-0.155000X0.212500X0.155000X-0.212500X0.155000X0*%
%ADD14RoundRect,0.150000X0.150000X0.575000X-0.150000X0.575000X-0.150000X-0.575000X0.150000X-0.575000X0*%
%ADD15RoundRect,0.075000X0.075000X0.650000X-0.075000X0.650000X-0.075000X-0.650000X0.075000X-0.650000X0*%
%ADD16R,1.500000X0.900000*%
%ADD17R,0.900000X1.500000*%
%ADD18R,1.050000X1.050000*%
%ADD19RoundRect,0.075000X-0.350000X-0.075000X0.350000X-0.075000X0.350000X0.075000X-0.350000X0.075000X0*%
%ADD20RoundRect,0.075000X0.075000X-0.350000X0.075000X0.350000X-0.075000X0.350000X-0.075000X-0.350000X0*%
%ADD21RoundRect,0.250000X0.255000X0.440000X-0.255000X0.440000X-0.255000X-0.440000X0.255000X-0.440000X0*%
%ADD22RoundRect,0.150000X0.825000X0.150000X-0.825000X0.150000X-0.825000X-0.150000X0.825000X-0.150000X0*%
G04 APERTURE END LIST*
D10*
%TO.C,U4*%
X205850000Y-78200000D03*
X205850000Y-80500000D03*
D11*
X212150000Y-80500000D03*
D10*
X205850000Y-82800000D03*
%TD*%
D12*
%TO.C,R1*%
X221500000Y-81500000D03*
X222695000Y-81500000D03*
%TD*%
D13*
%TO.C,C1*%
X222000000Y-77000000D03*
X223135000Y-77000000D03*
%TD*%
D14*
%TO.C,P1*%
X192750000Y-84545000D03*
X191950000Y-84545000D03*
D15*
X190750000Y-84545000D03*
X189750000Y-84545000D03*
X189250000Y-84545000D03*
X188250000Y-84545000D03*
D14*
X187050000Y-84545000D03*
X186250000Y-84545000D03*
X186250000Y-84545000D03*
X187050000Y-84545000D03*
D15*
X187750000Y-84545000D03*
X188750000Y-84545000D03*
X190250000Y-84545000D03*
X191250000Y-84545000D03*
D14*
X191950000Y-84545000D03*
X192750000Y-84545000D03*
%TD*%
D16*
%TO.C,U1*%
X199500000Y-53610000D03*
X199500000Y-54880000D03*
X199500000Y-56150000D03*
X199500000Y-57420000D03*
X199500000Y-58690000D03*
X199500000Y-59960000D03*
X199500000Y-61230000D03*
X199500000Y-62500000D03*
X199500000Y-63770000D03*
X199500000Y-65040000D03*
X199500000Y-66310000D03*
X199500000Y-67580000D03*
X199500000Y-68850000D03*
X199500000Y-70120000D03*
D17*
X202540000Y-71370000D03*
X203810000Y-71370000D03*
X205080000Y-71370000D03*
X206350000Y-71370000D03*
X207620000Y-71370000D03*
X208890000Y-71370000D03*
X210160000Y-71370000D03*
X211430000Y-71370000D03*
X212700000Y-71370000D03*
X213970000Y-71370000D03*
D16*
X217000000Y-70120000D03*
X217000000Y-68850000D03*
X217000000Y-67580000D03*
X217000000Y-66310000D03*
X217000000Y-65040000D03*
X217000000Y-63770000D03*
X217000000Y-62500000D03*
X217000000Y-61230000D03*
X217000000Y-59960000D03*
X217000000Y-58690000D03*
X217000000Y-57420000D03*
X217000000Y-56150000D03*
X217000000Y-54880000D03*
X217000000Y-53610000D03*
D18*
X206045000Y-59425000D03*
X206045000Y-60950000D03*
X206045000Y-62475000D03*
X207570000Y-59425000D03*
X207570000Y-60950000D03*
X207570000Y-62475000D03*
X209095000Y-59425000D03*
X209095000Y-60950000D03*
X209095000Y-62475000D03*
%TD*%
D19*
%TO.C,U2*%
X228050000Y-66750000D03*
X228050000Y-67250000D03*
X228050000Y-67750000D03*
X228050000Y-68250000D03*
X228050000Y-68750000D03*
X228050000Y-69250000D03*
D20*
X228750000Y-69950000D03*
X229250000Y-69950000D03*
X229750000Y-69950000D03*
X230250000Y-69950000D03*
X230750000Y-69950000D03*
X231250000Y-69950000D03*
D19*
X231950000Y-69250000D03*
X231950000Y-68750000D03*
X231950000Y-68250000D03*
X231950000Y-67750000D03*
X231950000Y-67250000D03*
X231950000Y-66750000D03*
D20*
X231250000Y-66050000D03*
X230750000Y-66050000D03*
X230250000Y-66050000D03*
X229750000Y-66050000D03*
X229250000Y-66050000D03*
X228750000Y-66050000D03*
%TD*%
D12*
%TO.C,R2*%
X221605000Y-84490000D03*
X222800000Y-84490000D03*
%TD*%
D21*
%TO.C,U3*%
X189625000Y-57960000D03*
X189625000Y-56310000D03*
X188425000Y-57960000D03*
X188425000Y-56310000D03*
D22*
X191500000Y-59040000D03*
X191500000Y-57770000D03*
X191500000Y-56500000D03*
X191500000Y-55230000D03*
X186550000Y-55230000D03*
X186550000Y-56500000D03*
X186550000Y-57770000D03*
X186550000Y-59040000D03*
%TD*%
M02*
