%TF.GenerationSoftware,KiCad,Pcbnew,10.0.1*%
%TF.CreationDate,2026-05-10T15:42:31+10:00*%
%TF.ProjectId,Clipoz,436c6970-6f7a-42e6-9b69-6361645f7063,rev?*%
%TF.SameCoordinates,Original*%
%TF.FileFunction,Copper,L1,Top*%
%TF.FilePolarity,Positive*%
%FSLAX46Y46*%
G04 Gerber Fmt 4.6, Leading zero omitted, Abs format (unit mm)*
G04 Created by KiCad (PCBNEW 10.0.1) date 2026-05-10 15:42:31*
%MOMM*%
%LPD*%
G01*
G04 APERTURE LIST*
G04 Aperture macros list*
%AMRoundRect*
0 Rectangle with rounded corners*
0 $1 Rounding radius*
0 $2 $3 $4 $5 $6 $7 $8 $9 X,Y pos of 4 corners*
0 Add a 4 corners polygon primitive as box body*
4,1,4,$2,$3,$4,$5,$6,$7,$8,$9,$2,$3,0*
0 Add four circle primitives for the rounded corners*
1,1,$1+$1,$2,$3*
1,1,$1+$1,$4,$5*
1,1,$1+$1,$6,$7*
1,1,$1+$1,$8,$9*
0 Add four rect primitives between the rounded corners*
20,1,$1+$1,$2,$3,$4,$5,0*
20,1,$1+$1,$4,$5,$6,$7,0*
20,1,$1+$1,$6,$7,$8,$9,0*
20,1,$1+$1,$8,$9,$2,$3,0*%
G04 Aperture macros list end*
%TA.AperFunction,SMDPad,CuDef*%
%ADD10RoundRect,0.375000X-0.625000X-0.375000X0.625000X-0.375000X0.625000X0.375000X-0.625000X0.375000X0*%
%TD*%
%TA.AperFunction,SMDPad,CuDef*%
%ADD11RoundRect,0.500000X-0.500000X-1.400000X0.500000X-1.400000X0.500000X1.400000X-0.500000X1.400000X0*%
%TD*%
%TA.AperFunction,SMDPad,CuDef*%
%ADD12RoundRect,0.160000X-0.197500X-0.160000X0.197500X-0.160000X0.197500X0.160000X-0.197500X0.160000X0*%
%TD*%
%TA.AperFunction,SMDPad,CuDef*%
%ADD13RoundRect,0.155000X-0.212500X-0.155000X0.212500X-0.155000X0.212500X0.155000X-0.212500X0.155000X0*%
%TD*%
%TA.AperFunction,SMDPad,CuDef*%
%ADD14RoundRect,0.150000X0.150000X0.575000X-0.150000X0.575000X-0.150000X-0.575000X0.150000X-0.575000X0*%
%TD*%
%TA.AperFunction,SMDPad,CuDef*%
%ADD15RoundRect,0.075000X0.075000X0.650000X-0.075000X0.650000X-0.075000X-0.650000X0.075000X-0.650000X0*%
%TD*%
%TA.AperFunction,ComponentPad*%
%ADD16O,1.000000X2.100000*%
%TD*%
%TA.AperFunction,ComponentPad*%
%ADD17O,1.000000X1.600000*%
%TD*%
%TA.AperFunction,SMDPad,CuDef*%
%ADD18R,1.500000X0.900000*%
%TD*%
%TA.AperFunction,SMDPad,CuDef*%
%ADD19R,0.900000X1.500000*%
%TD*%
%TA.AperFunction,SMDPad,CuDef*%
%ADD20R,1.050000X1.050000*%
%TD*%
%TA.AperFunction,HeatsinkPad*%
%ADD21C,0.600000*%
%TD*%
%TA.AperFunction,HeatsinkPad*%
%ADD22R,4.200000X4.200000*%
%TD*%
%TA.AperFunction,SMDPad,CuDef*%
%ADD23RoundRect,0.075000X-0.350000X-0.075000X0.350000X-0.075000X0.350000X0.075000X-0.350000X0.075000X0*%
%TD*%
%TA.AperFunction,SMDPad,CuDef*%
%ADD24RoundRect,0.075000X0.075000X-0.350000X0.075000X0.350000X-0.075000X0.350000X-0.075000X-0.350000X0*%
%TD*%
%TA.AperFunction,ComponentPad*%
%ADD25RoundRect,0.250000X-0.350000X-0.625000X0.350000X-0.625000X0.350000X0.625000X-0.350000X0.625000X0*%
%TD*%
%TA.AperFunction,ComponentPad*%
%ADD26O,1.200000X1.750000*%
%TD*%
%TA.AperFunction,SMDPad,CuDef*%
%ADD27RoundRect,0.150000X0.825000X0.150000X-0.825000X0.150000X-0.825000X-0.150000X0.825000X-0.150000X0*%
%TD*%
%TA.AperFunction,HeatsinkPad*%
%ADD28C,0.500000*%
%TD*%
%TA.AperFunction,HeatsinkPad*%
%ADD29R,2.410000X3.300000*%
%TD*%
%TA.AperFunction,ViaPad*%
%ADD30C,0.600000*%
%TD*%
%TA.AperFunction,Conductor*%
%ADD31C,0.200000*%
%TD*%
G04 APERTURE END LIST*
D10*
%TO.P,U4,1,GND_1*%
%TO.N,GND*%
X205850000Y-78200000D03*
%TO.P,U4,2,VO_2*%
%TO.N,+3.3V*%
X205850000Y-80500000D03*
D11*
X212150000Y-80500000D03*
D10*
%TO.P,U4,3,VI_3*%
%TO.N,/VBAT*%
X205850000Y-82800000D03*
%TD*%
D12*
%TO.P,R1,1*%
%TO.N,+3.3V*%
X221500000Y-81500000D03*
%TO.P,R1,2*%
%TO.N,Net-(U1-EN)*%
X222695000Y-81500000D03*
%TD*%
D13*
%TO.P,C1,1*%
%TO.N,+3V3*%
X222000000Y-77000000D03*
%TO.P,C1,2*%
%TO.N,GND*%
X223135000Y-77000000D03*
%TD*%
D14*
%TO.P,P1,A1,GND_A1*%
%TO.N,GND*%
X192750000Y-84545000D03*
%TO.P,P1,A4,VBUS_A4*%
%TO.N,VBUS*%
X191950000Y-84545000D03*
D15*
%TO.P,P1,A5,CC_A5*%
%TO.N,unconnected-(P1-CC-PadA5)*%
X190750000Y-84545000D03*
%TO.P,P1,A6,D+_A6*%
%TO.N,unconnected-(P1-D+-PadA6)*%
X189750000Y-84545000D03*
%TO.P,P1,A7,D-_A7*%
%TO.N,unconnected-(P1-D--PadA7)*%
X189250000Y-84545000D03*
%TO.P,P1,A8*%
%TO.N,N/C*%
X188250000Y-84545000D03*
D14*
%TO.P,P1,A9,VBUS_A9*%
%TO.N,VBUS*%
X187050000Y-84545000D03*
%TO.P,P1,A12,GND_A12*%
%TO.N,GND*%
X186250000Y-84545000D03*
%TO.P,P1,B1,GND_B1*%
X186250000Y-84545000D03*
%TO.P,P1,B4,VBUS_B4*%
%TO.N,VBUS*%
X187050000Y-84545000D03*
D15*
%TO.P,P1,B5,VCONN_B5*%
%TO.N,unconnected-(P1-VCONN-PadB5)*%
X187750000Y-84545000D03*
%TO.P,P1,B6*%
%TO.N,N/C*%
X188750000Y-84545000D03*
%TO.P,P1,B7*%
X190250000Y-84545000D03*
%TO.P,P1,B8*%
X191250000Y-84545000D03*
D14*
%TO.P,P1,B9,VBUS_B9*%
%TO.N,VBUS*%
X191950000Y-84545000D03*
%TO.P,P1,B12,GND_B12*%
%TO.N,GND*%
X192750000Y-84545000D03*
D16*
%TO.P,P1,SH,SHIELD_SH*%
%TO.N,unconnected-(P1-SHIELD-PadSH)*%
X193820000Y-83630000D03*
D17*
%TO.N,unconnected-(P1-SHIELD-PadSH)_3*%
X193820000Y-79450000D03*
D16*
%TO.N,unconnected-(P1-SHIELD-PadSH)_2*%
X185180000Y-83630000D03*
D17*
%TO.N,unconnected-(P1-SHIELD-PadSH)_1*%
X185180000Y-79450000D03*
%TD*%
D18*
%TO.P,U1,1,GND_1*%
%TO.N,GND*%
X199500000Y-53610000D03*
%TO.P,U1,2,VDD_2*%
%TO.N,+3.3V*%
X199500000Y-54880000D03*
%TO.P,U1,3,EN_3*%
%TO.N,Net-(U1-EN)*%
X199500000Y-56150000D03*
%TO.P,U1,4,SENSOR_VP_4*%
%TO.N,unconnected-(U1-SENSOR_VP-Pad4)*%
X199500000Y-57420000D03*
%TO.P,U1,5,SENSOR_VN_5*%
%TO.N,unconnected-(U1-SENSOR_VN-Pad5)*%
X199500000Y-58690000D03*
%TO.P,U1,6,IO34_6*%
%TO.N,unconnected-(U1-IO34-Pad6)*%
X199500000Y-59960000D03*
%TO.P,U1,7,IO35_7*%
%TO.N,unconnected-(U1-IO35-Pad7)*%
X199500000Y-61230000D03*
%TO.P,U1,8,IO32_8*%
%TO.N,unconnected-(U1-IO32-Pad8)*%
X199500000Y-62500000D03*
%TO.P,U1,9,IO33_9*%
%TO.N,/MPU_INT*%
X199500000Y-63770000D03*
%TO.P,U1,10,IO25_10*%
%TO.N,unconnected-(U1-IO25-Pad10)*%
X199500000Y-65040000D03*
%TO.P,U1,11,IO26_11*%
%TO.N,unconnected-(U1-IO26-Pad11)*%
X199500000Y-66310000D03*
%TO.P,U1,12,IO27_12*%
%TO.N,unconnected-(U1-IO27-Pad12)*%
X199500000Y-67580000D03*
%TO.P,U1,13,IO14_13*%
%TO.N,unconnected-(U1-IO14-Pad13)*%
X199500000Y-68850000D03*
%TO.P,U1,14,IO12_14*%
%TO.N,unconnected-(U1-IO12-Pad14)*%
X199500000Y-70120000D03*
D19*
%TO.P,U1,15,GND_15*%
%TO.N,GND*%
X202540000Y-71370000D03*
%TO.P,U1,16,IO13_16*%
%TO.N,unconnected-(U1-IO13-Pad16)*%
X203810000Y-71370000D03*
%TO.P,U1,17,SHD/SD2_17*%
%TO.N,unconnected-(U1-SHD{slash}SD2-Pad17)*%
X205080000Y-71370000D03*
%TO.P,U1,18,SWP/SD3_18*%
%TO.N,unconnected-(U1-SWP{slash}SD3-Pad18)*%
X206350000Y-71370000D03*
%TO.P,U1,19,SCS/CMD_19*%
%TO.N,unconnected-(U1-SCS{slash}CMD-Pad19)*%
X207620000Y-71370000D03*
%TO.P,U1,20,SCK/CLK_20*%
%TO.N,unconnected-(U1-SCK{slash}CLK-Pad20)*%
X208890000Y-71370000D03*
%TO.P,U1,21,SDO/SD0_21*%
%TO.N,/SDA*%
X210160000Y-71370000D03*
%TO.P,U1,22,SDI/SD1_22*%
%TO.N,/SCL*%
X211430000Y-71370000D03*
%TO.P,U1,23,IO15_23*%
%TO.N,unconnected-(U1-IO15-Pad23)*%
X212700000Y-71370000D03*
%TO.P,U1,24,IO2_24*%
%TO.N,unconnected-(U1-IO2-Pad24)*%
X213970000Y-71370000D03*
D18*
%TO.P,U1,25,IO0_25*%
%TO.N,unconnected-(U1-IO0-Pad25)*%
X217000000Y-70120000D03*
%TO.P,U1,26,IO4_26*%
%TO.N,unconnected-(U1-IO4-Pad26)*%
X217000000Y-68850000D03*
%TO.P,U1,27,IO16_27*%
%TO.N,unconnected-(U1-IO16-Pad27)*%
X217000000Y-67580000D03*
%TO.P,U1,28,IO17_28*%
%TO.N,unconnected-(U1-IO17-Pad28)*%
X217000000Y-66310000D03*
%TO.P,U1,29,IO5_29*%
%TO.N,unconnected-(U1-IO5-Pad29)*%
X217000000Y-65040000D03*
%TO.P,U1,30,IO18_30*%
%TO.N,unconnected-(U1-IO18-Pad30)*%
X217000000Y-63770000D03*
%TO.P,U1,31,IO19_31*%
%TO.N,unconnected-(U1-IO19-Pad31)*%
X217000000Y-62500000D03*
%TO.P,U1,32,NC_32*%
%TO.N,unconnected-(U1-NC-Pad32)*%
X217000000Y-61230000D03*
%TO.P,U1,33,IO21_33*%
%TO.N,unconnected-(U1-IO21-Pad33)*%
X217000000Y-59960000D03*
%TO.P,U1,34,RXD0/IO3_34*%
%TO.N,unconnected-(U1-RXD0{slash}IO3-Pad34)*%
X217000000Y-58690000D03*
%TO.P,U1,35,TXD0/IO1_35*%
%TO.N,unconnected-(U1-TXD0{slash}IO1-Pad35)*%
X217000000Y-57420000D03*
%TO.P,U1,36,IO22_36*%
%TO.N,unconnected-(U1-IO22-Pad36)*%
X217000000Y-56150000D03*
%TO.P,U1,37,IO23_37*%
%TO.N,unconnected-(U1-IO23-Pad37)*%
X217000000Y-54880000D03*
%TO.P,U1,38,GND_38*%
%TO.N,GND*%
X217000000Y-53610000D03*
D20*
%TO.P,U1,39,GND_39*%
X206045000Y-59425000D03*
D21*
X206045000Y-60187500D03*
D20*
X206045000Y-60950000D03*
D21*
X206045000Y-61712500D03*
D20*
X206045000Y-62475000D03*
D21*
X206807500Y-59425000D03*
X206807500Y-60950000D03*
X206807500Y-62475000D03*
D20*
X207570000Y-59425000D03*
D21*
X207570000Y-60187500D03*
D20*
X207570000Y-60950000D03*
D22*
X207570000Y-60950000D03*
D21*
X207570000Y-61712500D03*
D20*
X207570000Y-62475000D03*
D21*
X208332500Y-59425000D03*
X208332500Y-60950000D03*
X208332500Y-62475000D03*
D20*
X209095000Y-59425000D03*
D21*
X209095000Y-60187500D03*
D20*
X209095000Y-60950000D03*
D21*
X209095000Y-61712500D03*
D20*
X209095000Y-62475000D03*
%TD*%
D23*
%TO.P,U2,1,CLKIN_1*%
%TO.N,unconnected-(U2-CLKIN-Pad1)*%
X228050000Y-66750000D03*
%TO.P,U2,2,NC_2*%
%TO.N,unconnected-(U2-NC-Pad2)*%
X228050000Y-67250000D03*
%TO.P,U2,3,NC_3*%
%TO.N,unconnected-(U2-NC-Pad3)*%
X228050000Y-67750000D03*
%TO.P,U2,4,NC_4*%
%TO.N,unconnected-(U2-NC-Pad4)*%
X228050000Y-68250000D03*
%TO.P,U2,5,NC_5*%
%TO.N,unconnected-(U2-NC-Pad5)*%
X228050000Y-68750000D03*
%TO.P,U2,6,AUX_DA_6*%
%TO.N,unconnected-(U2-AUX_DA-Pad6)*%
X228050000Y-69250000D03*
D24*
%TO.P,U2,7,AUX_CL_7*%
%TO.N,unconnected-(U2-AUX_CL-Pad7)*%
X228750000Y-69950000D03*
%TO.P,U2,8,VLOGIC_8*%
%TO.N,+3.3V*%
X229250000Y-69950000D03*
%TO.P,U2,9,AD0_9*%
%TO.N,unconnected-(U2-AD0-Pad9)*%
X229750000Y-69950000D03*
%TO.P,U2,10,REGOUT_10*%
%TO.N,unconnected-(U2-REGOUT-Pad10)*%
X230250000Y-69950000D03*
%TO.P,U2,11,FSYNC_11*%
%TO.N,unconnected-(U2-FSYNC-Pad11)*%
X230750000Y-69950000D03*
%TO.P,U2,12,INT_12*%
%TO.N,/MPU_INT*%
X231250000Y-69950000D03*
D23*
%TO.P,U2,13,VDD_13*%
%TO.N,+3.3V*%
X231950000Y-69250000D03*
%TO.P,U2,14,NC_14*%
%TO.N,unconnected-(U2-NC-Pad14)*%
X231950000Y-68750000D03*
%TO.P,U2,15,NC_15*%
%TO.N,unconnected-(U2-NC-Pad15)*%
X231950000Y-68250000D03*
%TO.P,U2,16,NC_16*%
%TO.N,unconnected-(U2-NC-Pad16)*%
X231950000Y-67750000D03*
%TO.P,U2,17,NC_17*%
%TO.N,unconnected-(U2-NC-Pad17)*%
X231950000Y-67250000D03*
%TO.P,U2,18,GND_18*%
%TO.N,GND*%
X231950000Y-66750000D03*
D24*
%TO.P,U2,19,RESV_19*%
%TO.N,unconnected-(U2-RESV-Pad19)*%
X231250000Y-66050000D03*
%TO.P,U2,20,CPOUT_20*%
%TO.N,unconnected-(U2-CPOUT-Pad20)*%
X230750000Y-66050000D03*
%TO.P,U2,21,RESV_21*%
%TO.N,unconnected-(U2-RESV-Pad21)*%
X230250000Y-66050000D03*
%TO.P,U2,22,RESV_22*%
%TO.N,unconnected-(U2-RESV-Pad22)*%
X229750000Y-66050000D03*
%TO.P,U2,23,SCL_23*%
%TO.N,/SCL*%
X229250000Y-66050000D03*
%TO.P,U2,24,SDA_24*%
%TO.N,/SDA*%
X228750000Y-66050000D03*
%TD*%
D12*
%TO.P,R2,1*%
%TO.N,GND*%
X221605000Y-84490000D03*
%TO.P,R2,2*%
%TO.N,Net-(U3-PROG)*%
X222800000Y-84490000D03*
%TD*%
D25*
%TO.P,J1,1,Pin_1_1*%
%TO.N,/VBAT*%
X234000000Y-55050000D03*
D26*
%TO.P,J1,2,Pin_2_2*%
%TO.N,GND*%
X236000000Y-55050000D03*
%TD*%
D27*
%TO.P,U3,1,TEMP_1*%
%TO.N,unconnected-(U3-TEMP-Pad1)*%
X191500000Y-59040000D03*
%TO.P,U3,2,PROG_2*%
%TO.N,Net-(U3-PROG)*%
X191500000Y-57770000D03*
%TO.P,U3,3,GND_3*%
%TO.N,GND*%
X191500000Y-56500000D03*
%TO.P,U3,4,V_{CC}_4*%
%TO.N,VBUS*%
X191500000Y-55230000D03*
%TO.P,U3,5,BAT_5*%
%TO.N,/VBAT*%
X186550000Y-55230000D03*
%TO.P,U3,6,~{STDBY}_6*%
%TO.N,unconnected-(U3-~{STDBY}-Pad6)*%
X186550000Y-56500000D03*
%TO.P,U3,7,~{CHRG}_7*%
%TO.N,unconnected-(U3-~{CHRG}-Pad7)*%
X186550000Y-57770000D03*
%TO.P,U3,8,CE_8*%
%TO.N,VBUS*%
X186550000Y-59040000D03*
D28*
%TO.P,U3,9,EPAD_9*%
%TO.N,unconnected-(U3-EPAD-Pad9)_4*%
X189725000Y-58335000D03*
%TO.N,unconnected-(U3-EPAD-Pad9)_2*%
X189725000Y-57135000D03*
%TO.N,unconnected-(U3-EPAD-Pad9)_6*%
X189725000Y-55935000D03*
D29*
%TO.N,unconnected-(U3-EPAD-Pad9)_7*%
X189025000Y-57135000D03*
D28*
%TO.N,unconnected-(U3-EPAD-Pad9)_1*%
X188325000Y-58335000D03*
%TO.N,unconnected-(U3-EPAD-Pad9)_5*%
X188325000Y-57135000D03*
%TO.N,unconnected-(U3-EPAD-Pad9)*%
X188325000Y-55935000D03*
%TD*%
D30*
%TO.N,GND*%
X225000000Y-83500000D03*
X224000000Y-80000000D03*
%TO.N,VBUS*%
X191500000Y-53500000D03*
X186000000Y-61000000D03*
%TO.N,/SCL*%
X211500000Y-70000000D03*
X219500000Y-65000000D03*
%TO.N,+3.3V*%
X220500000Y-80500000D03*
X224000000Y-76000000D03*
%TO.N,/MPU_INT*%
X202000000Y-64000000D03*
X232251472Y-70400000D03*
%TO.N,/SDA*%
X210000000Y-69000000D03*
X219000000Y-66500000D03*
%TO.N,GND*%
X202500000Y-69000000D03*
X212000000Y-66500000D03*
%TO.N,+3.3V*%
X197000000Y-57500000D03*
X202000000Y-78500000D03*
%TO.N,/VBAT*%
X202500000Y-83000000D03*
X189500000Y-71000000D03*
%TO.N,Net-(U3-PROG)*%
X201500000Y-74500000D03*
X228500000Y-84500000D03*
%TD*%
%TO.N,GND*%
D31*
X223135000Y-77000000D02*
X223135000Y-79135000D01*
X223135000Y-79135000D02*
X224000000Y-80000000D01*
X225000000Y-83500000D02*
X222595000Y-83500000D01*
X222595000Y-83500000D02*
X221605000Y-84490000D01*
%TO.N,VBUS*%
X191500000Y-53500000D02*
X191500000Y-55230000D01*
X186550000Y-59040000D02*
X186000000Y-59590000D01*
X186000000Y-59590000D02*
X186000000Y-61000000D01*
%TO.N,/SCL*%
X229250000Y-65592590D02*
X228657410Y-65000000D01*
X228657410Y-65000000D02*
X219500000Y-65000000D01*
X229250000Y-66050000D02*
X229250000Y-65592590D01*
X211500000Y-70000000D02*
X211500000Y-71300000D01*
X211500000Y-71300000D02*
X211430000Y-71370000D01*
%TO.N,+3.3V*%
X229671295Y-70828705D02*
X229250000Y-70407410D01*
X229671295Y-70828705D02*
X229171295Y-70828705D01*
X229171295Y-70828705D02*
X224000000Y-76000000D01*
X220500000Y-80500000D02*
X221500000Y-81500000D01*
%TO.N,/MPU_INT*%
X231250000Y-69950000D02*
X231801472Y-69950000D01*
X231801472Y-69950000D02*
X232251472Y-70400000D01*
X201770000Y-63770000D02*
X199500000Y-63770000D01*
X202000000Y-64000000D02*
X201770000Y-63770000D01*
%TO.N,GND*%
X231950000Y-66750000D02*
X232407410Y-66750000D01*
X232407410Y-66750000D02*
X233400000Y-67742590D01*
X233400000Y-67742590D02*
X233400000Y-71241786D01*
X227641786Y-77000000D02*
X223135000Y-77000000D01*
X233400000Y-71241786D02*
X227641786Y-77000000D01*
%TO.N,+3.3V*%
X233000000Y-70300000D02*
X233000000Y-71000000D01*
X231950000Y-69250000D02*
X233000000Y-70300000D01*
X229842590Y-71000000D02*
X229671295Y-70828705D01*
X233000000Y-71000000D02*
X229842590Y-71000000D01*
X229250000Y-70407410D02*
X229250000Y-69950000D01*
%TO.N,/VBAT*%
X234000000Y-55050000D02*
X235175000Y-53875000D01*
X235175000Y-53875000D02*
X236372792Y-53875000D01*
X236372792Y-53875000D02*
X236900000Y-54402208D01*
X236900000Y-54402208D02*
X236900000Y-68307472D01*
X236900000Y-68307472D02*
X222407472Y-82800000D01*
X222407472Y-82800000D02*
X205850000Y-82800000D01*
%TO.N,GND*%
X236000000Y-55050000D02*
X236000000Y-62700000D01*
X236000000Y-62700000D02*
X231950000Y-66750000D01*
%TO.N,/SDA*%
X228750000Y-66050000D02*
X219450000Y-66050000D01*
X210000000Y-69000000D02*
X210160000Y-69160000D01*
X219450000Y-66050000D02*
X219000000Y-66500000D01*
X210160000Y-69160000D02*
X210160000Y-71370000D01*
%TO.N,GND*%
X212000000Y-66500000D02*
X212000000Y-66795262D01*
X212000000Y-66795262D02*
X221594738Y-76390000D01*
X221594738Y-76390000D02*
X222525000Y-76390000D01*
X222525000Y-76390000D02*
X223135000Y-77000000D01*
X207975000Y-62475000D02*
X212000000Y-66500000D01*
X207570000Y-62475000D02*
X207975000Y-62475000D01*
X202500000Y-69000000D02*
X202540000Y-69040000D01*
X202540000Y-69040000D02*
X202540000Y-71370000D01*
%TO.N,Net-(U1-EN)*%
X199500000Y-56150000D02*
X200450000Y-56150000D01*
X205170000Y-63350000D02*
X207850000Y-63350000D01*
X200450000Y-56150000D02*
X205170000Y-60870000D01*
X205170000Y-60870000D02*
X205170000Y-63350000D01*
X207850000Y-63350000D02*
X221332500Y-76832500D01*
X221332500Y-76832500D02*
X221332500Y-80137500D01*
X221332500Y-80137500D02*
X222695000Y-81500000D01*
%TO.N,GND*%
X199500000Y-53610000D02*
X200230000Y-53610000D01*
X200230000Y-53610000D02*
X207570000Y-60950000D01*
%TO.N,+3.3V*%
X205850000Y-80500000D02*
X204000000Y-80500000D01*
X204000000Y-80500000D02*
X202000000Y-78500000D01*
X197000000Y-57500000D02*
X197000000Y-56430000D01*
X197000000Y-56430000D02*
X198550000Y-54880000D01*
X198550000Y-54880000D02*
X199500000Y-54880000D01*
X205850000Y-80500000D02*
X212150000Y-80500000D01*
X212150000Y-80500000D02*
X213150000Y-81500000D01*
X213150000Y-81500000D02*
X221500000Y-81500000D01*
%TO.N,GND*%
X192750000Y-84545000D02*
X192750000Y-85269999D01*
X192750000Y-85269999D02*
X192449999Y-85570000D01*
X186250000Y-85269999D02*
X186250000Y-84545000D01*
X192449999Y-85570000D02*
X186550001Y-85570000D01*
X186550001Y-85570000D02*
X186250000Y-85269999D01*
X202540000Y-74890000D02*
X202540000Y-76591371D01*
X193185000Y-84980000D02*
X192750000Y-84545000D01*
X202540000Y-76591371D02*
X194151371Y-84980000D01*
X194151371Y-84980000D02*
X193185000Y-84980000D01*
%TO.N,/VBAT*%
X202700000Y-82800000D02*
X205850000Y-82800000D01*
X186550000Y-55230000D02*
X186204448Y-55230000D01*
X186204448Y-55230000D02*
X185275000Y-56159448D01*
X185275000Y-56159448D02*
X185275000Y-66775000D01*
X185275000Y-66775000D02*
X189500000Y-71000000D01*
X202500000Y-83000000D02*
X202700000Y-82800000D01*
%TO.N,Net-(U3-PROG)*%
X228490000Y-84490000D02*
X222800000Y-84490000D01*
X192775000Y-58699448D02*
X192775000Y-65775000D01*
X191845552Y-57770000D02*
X192775000Y-58699448D01*
X228500000Y-84500000D02*
X228490000Y-84490000D01*
X192775000Y-65775000D02*
X201500000Y-74500000D01*
X191500000Y-57770000D02*
X191845552Y-57770000D01*
%TO.N,GND*%
X191500000Y-56500000D02*
X196080000Y-56500000D01*
X205850000Y-78200000D02*
X202540000Y-74890000D01*
X217000000Y-53610000D02*
X216435000Y-53610000D01*
X196080000Y-56500000D02*
X198970000Y-53610000D01*
X198970000Y-53610000D02*
X199500000Y-53610000D01*
X202540000Y-74890000D02*
X202540000Y-71370000D01*
X216435000Y-53610000D02*
X209095000Y-60950000D01*
%TO.N,VBUS*%
X191950000Y-84545000D02*
X191715000Y-84310000D01*
X191715000Y-64205000D02*
X186550000Y-59040000D01*
X188870001Y-82000000D02*
X187050000Y-83820001D01*
X187050000Y-83820001D02*
X187050000Y-84545000D01*
X191715000Y-82000000D02*
X191715000Y-64205000D01*
X191715000Y-84310000D02*
X191715000Y-82000000D01*
X191715000Y-82000000D02*
X188870001Y-82000000D01*
%TD*%
M02*
