%TF.GenerationSoftware,KiCad,Pcbnew,10.0.1*%
%TF.CreationDate,2026-05-10T15:42:31+10:00*%
%TF.ProjectId,Clipoz,436c6970-6f7a-42e6-9b69-6361645f7063,rev?*%
%TF.SameCoordinates,Original*%
%TF.FileFunction,Legend,Top*%
%TF.FilePolarity,Positive*%
%FSLAX46Y46*%
G04 Gerber Fmt 4.6, Leading zero omitted, Abs format (unit mm)*
G04 Created by KiCad (PCBNEW 10.0.1) date 2026-05-10 15:42:31*
%MOMM*%
%LPD*%
G01*
G04 APERTURE LIST*
%ADD10C,0.300000*%
%ADD11C,0.150000*%
%ADD12C,0.000000*%
%ADD13C,0.120000*%
G04 APERTURE END LIST*
D10*
X196678572Y-38749757D02*
X196535715Y-38678328D01*
X196535715Y-38678328D02*
X196321429Y-38678328D01*
X196321429Y-38678328D02*
X196107143Y-38749757D01*
X196107143Y-38749757D02*
X195964286Y-38892614D01*
X195964286Y-38892614D02*
X195892857Y-39035471D01*
X195892857Y-39035471D02*
X195821429Y-39321185D01*
X195821429Y-39321185D02*
X195821429Y-39535471D01*
X195821429Y-39535471D02*
X195892857Y-39821185D01*
X195892857Y-39821185D02*
X195964286Y-39964042D01*
X195964286Y-39964042D02*
X196107143Y-40106900D01*
X196107143Y-40106900D02*
X196321429Y-40178328D01*
X196321429Y-40178328D02*
X196464286Y-40178328D01*
X196464286Y-40178328D02*
X196678572Y-40106900D01*
X196678572Y-40106900D02*
X196750000Y-40035471D01*
X196750000Y-40035471D02*
X196750000Y-39535471D01*
X196750000Y-39535471D02*
X196464286Y-39535471D01*
X197607143Y-38678328D02*
X197607143Y-39035471D01*
X197250000Y-38892614D02*
X197607143Y-39035471D01*
X197607143Y-39035471D02*
X197964286Y-38892614D01*
X197392857Y-39321185D02*
X197607143Y-39035471D01*
X197607143Y-39035471D02*
X197821429Y-39321185D01*
X198750000Y-38678328D02*
X198750000Y-39035471D01*
X198392857Y-38892614D02*
X198750000Y-39035471D01*
X198750000Y-39035471D02*
X199107143Y-38892614D01*
X198535714Y-39321185D02*
X198750000Y-39035471D01*
X198750000Y-39035471D02*
X198964286Y-39321185D01*
X199892857Y-38678328D02*
X199892857Y-39035471D01*
X199535714Y-38892614D02*
X199892857Y-39035471D01*
X199892857Y-39035471D02*
X200250000Y-38892614D01*
X199678571Y-39321185D02*
X199892857Y-39035471D01*
X199892857Y-39035471D02*
X200107143Y-39321185D01*
X219678572Y-35749757D02*
X219535715Y-35678328D01*
X219535715Y-35678328D02*
X219321429Y-35678328D01*
X219321429Y-35678328D02*
X219107143Y-35749757D01*
X219107143Y-35749757D02*
X218964286Y-35892614D01*
X218964286Y-35892614D02*
X218892857Y-36035471D01*
X218892857Y-36035471D02*
X218821429Y-36321185D01*
X218821429Y-36321185D02*
X218821429Y-36535471D01*
X218821429Y-36535471D02*
X218892857Y-36821185D01*
X218892857Y-36821185D02*
X218964286Y-36964042D01*
X218964286Y-36964042D02*
X219107143Y-37106900D01*
X219107143Y-37106900D02*
X219321429Y-37178328D01*
X219321429Y-37178328D02*
X219464286Y-37178328D01*
X219464286Y-37178328D02*
X219678572Y-37106900D01*
X219678572Y-37106900D02*
X219750000Y-37035471D01*
X219750000Y-37035471D02*
X219750000Y-36535471D01*
X219750000Y-36535471D02*
X219464286Y-36535471D01*
X220607143Y-35678328D02*
X220607143Y-36035471D01*
X220250000Y-35892614D02*
X220607143Y-36035471D01*
X220607143Y-36035471D02*
X220964286Y-35892614D01*
X220392857Y-36321185D02*
X220607143Y-36035471D01*
X220607143Y-36035471D02*
X220821429Y-36321185D01*
X221750000Y-35678328D02*
X221750000Y-36035471D01*
X221392857Y-35892614D02*
X221750000Y-36035471D01*
X221750000Y-36035471D02*
X222107143Y-35892614D01*
X221535714Y-36321185D02*
X221750000Y-36035471D01*
X221750000Y-36035471D02*
X221964286Y-36321185D01*
X222892857Y-35678328D02*
X222892857Y-36035471D01*
X222535714Y-35892614D02*
X222892857Y-36035471D01*
X222892857Y-36035471D02*
X223250000Y-35892614D01*
X222678571Y-36321185D02*
X222892857Y-36035471D01*
X222892857Y-36035471D02*
X223107143Y-36321185D01*
D11*
X208238095Y-75454819D02*
X208238095Y-76264342D01*
X208238095Y-76264342D02*
X208285714Y-76359580D01*
X208285714Y-76359580D02*
X208333333Y-76407200D01*
X208333333Y-76407200D02*
X208428571Y-76454819D01*
X208428571Y-76454819D02*
X208619047Y-76454819D01*
X208619047Y-76454819D02*
X208714285Y-76407200D01*
X208714285Y-76407200D02*
X208761904Y-76359580D01*
X208761904Y-76359580D02*
X208809523Y-76264342D01*
X208809523Y-76264342D02*
X208809523Y-75454819D01*
X209714285Y-75788152D02*
X209714285Y-76454819D01*
X209476190Y-75407200D02*
X209238095Y-76121485D01*
X209238095Y-76121485D02*
X209857142Y-76121485D01*
X221930833Y-80784819D02*
X221597500Y-80308628D01*
X221359405Y-80784819D02*
X221359405Y-79784819D01*
X221359405Y-79784819D02*
X221740357Y-79784819D01*
X221740357Y-79784819D02*
X221835595Y-79832438D01*
X221835595Y-79832438D02*
X221883214Y-79880057D01*
X221883214Y-79880057D02*
X221930833Y-79975295D01*
X221930833Y-79975295D02*
X221930833Y-80118152D01*
X221930833Y-80118152D02*
X221883214Y-80213390D01*
X221883214Y-80213390D02*
X221835595Y-80261009D01*
X221835595Y-80261009D02*
X221740357Y-80308628D01*
X221740357Y-80308628D02*
X221359405Y-80308628D01*
X222883214Y-80784819D02*
X222311786Y-80784819D01*
X222597500Y-80784819D02*
X222597500Y-79784819D01*
X222597500Y-79784819D02*
X222502262Y-79927676D01*
X222502262Y-79927676D02*
X222407024Y-80022914D01*
X222407024Y-80022914D02*
X222311786Y-80070533D01*
X222400833Y-76199580D02*
X222353214Y-76247200D01*
X222353214Y-76247200D02*
X222210357Y-76294819D01*
X222210357Y-76294819D02*
X222115119Y-76294819D01*
X222115119Y-76294819D02*
X221972262Y-76247200D01*
X221972262Y-76247200D02*
X221877024Y-76151961D01*
X221877024Y-76151961D02*
X221829405Y-76056723D01*
X221829405Y-76056723D02*
X221781786Y-75866247D01*
X221781786Y-75866247D02*
X221781786Y-75723390D01*
X221781786Y-75723390D02*
X221829405Y-75532914D01*
X221829405Y-75532914D02*
X221877024Y-75437676D01*
X221877024Y-75437676D02*
X221972262Y-75342438D01*
X221972262Y-75342438D02*
X222115119Y-75294819D01*
X222115119Y-75294819D02*
X222210357Y-75294819D01*
X222210357Y-75294819D02*
X222353214Y-75342438D01*
X222353214Y-75342438D02*
X222400833Y-75390057D01*
X223353214Y-76294819D02*
X222781786Y-76294819D01*
X223067500Y-76294819D02*
X223067500Y-75294819D01*
X223067500Y-75294819D02*
X222972262Y-75437676D01*
X222972262Y-75437676D02*
X222877024Y-75532914D01*
X222877024Y-75532914D02*
X222781786Y-75580533D01*
X188761905Y-86599819D02*
X188761905Y-85599819D01*
X188761905Y-85599819D02*
X189142857Y-85599819D01*
X189142857Y-85599819D02*
X189238095Y-85647438D01*
X189238095Y-85647438D02*
X189285714Y-85695057D01*
X189285714Y-85695057D02*
X189333333Y-85790295D01*
X189333333Y-85790295D02*
X189333333Y-85933152D01*
X189333333Y-85933152D02*
X189285714Y-86028390D01*
X189285714Y-86028390D02*
X189238095Y-86076009D01*
X189238095Y-86076009D02*
X189142857Y-86123628D01*
X189142857Y-86123628D02*
X188761905Y-86123628D01*
X190285714Y-86599819D02*
X189714286Y-86599819D01*
X190000000Y-86599819D02*
X190000000Y-85599819D01*
X190000000Y-85599819D02*
X189904762Y-85742676D01*
X189904762Y-85742676D02*
X189809524Y-85837914D01*
X189809524Y-85837914D02*
X189714286Y-85885533D01*
X197094819Y-71051904D02*
X197904342Y-71051904D01*
X197904342Y-71051904D02*
X197999580Y-71004285D01*
X197999580Y-71004285D02*
X198047200Y-70956666D01*
X198047200Y-70956666D02*
X198094819Y-70861428D01*
X198094819Y-70861428D02*
X198094819Y-70670952D01*
X198094819Y-70670952D02*
X198047200Y-70575714D01*
X198047200Y-70575714D02*
X197999580Y-70528095D01*
X197999580Y-70528095D02*
X197904342Y-70480476D01*
X197904342Y-70480476D02*
X197094819Y-70480476D01*
X198094819Y-69480476D02*
X198094819Y-70051904D01*
X198094819Y-69766190D02*
X197094819Y-69766190D01*
X197094819Y-69766190D02*
X197237676Y-69861428D01*
X197237676Y-69861428D02*
X197332914Y-69956666D01*
X197332914Y-69956666D02*
X197380533Y-70051904D01*
X229238095Y-64079819D02*
X229238095Y-64889342D01*
X229238095Y-64889342D02*
X229285714Y-64984580D01*
X229285714Y-64984580D02*
X229333333Y-65032200D01*
X229333333Y-65032200D02*
X229428571Y-65079819D01*
X229428571Y-65079819D02*
X229619047Y-65079819D01*
X229619047Y-65079819D02*
X229714285Y-65032200D01*
X229714285Y-65032200D02*
X229761904Y-64984580D01*
X229761904Y-64984580D02*
X229809523Y-64889342D01*
X229809523Y-64889342D02*
X229809523Y-64079819D01*
X230238095Y-64175057D02*
X230285714Y-64127438D01*
X230285714Y-64127438D02*
X230380952Y-64079819D01*
X230380952Y-64079819D02*
X230619047Y-64079819D01*
X230619047Y-64079819D02*
X230714285Y-64127438D01*
X230714285Y-64127438D02*
X230761904Y-64175057D01*
X230761904Y-64175057D02*
X230809523Y-64270295D01*
X230809523Y-64270295D02*
X230809523Y-64365533D01*
X230809523Y-64365533D02*
X230761904Y-64508390D01*
X230761904Y-64508390D02*
X230190476Y-65079819D01*
X230190476Y-65079819D02*
X230809523Y-65079819D01*
X221833333Y-83954819D02*
X221500000Y-83478628D01*
X221261905Y-83954819D02*
X221261905Y-82954819D01*
X221261905Y-82954819D02*
X221642857Y-82954819D01*
X221642857Y-82954819D02*
X221738095Y-83002438D01*
X221738095Y-83002438D02*
X221785714Y-83050057D01*
X221785714Y-83050057D02*
X221833333Y-83145295D01*
X221833333Y-83145295D02*
X221833333Y-83288152D01*
X221833333Y-83288152D02*
X221785714Y-83383390D01*
X221785714Y-83383390D02*
X221738095Y-83431009D01*
X221738095Y-83431009D02*
X221642857Y-83478628D01*
X221642857Y-83478628D02*
X221261905Y-83478628D01*
X222214286Y-83050057D02*
X222261905Y-83002438D01*
X222261905Y-83002438D02*
X222357143Y-82954819D01*
X222357143Y-82954819D02*
X222595238Y-82954819D01*
X222595238Y-82954819D02*
X222690476Y-83002438D01*
X222690476Y-83002438D02*
X222738095Y-83050057D01*
X222738095Y-83050057D02*
X222785714Y-83145295D01*
X222785714Y-83145295D02*
X222785714Y-83240533D01*
X222785714Y-83240533D02*
X222738095Y-83383390D01*
X222738095Y-83383390D02*
X222166667Y-83954819D01*
X222166667Y-83954819D02*
X222785714Y-83954819D01*
X234666666Y-51954819D02*
X234666666Y-52669104D01*
X234666666Y-52669104D02*
X234619047Y-52811961D01*
X234619047Y-52811961D02*
X234523809Y-52907200D01*
X234523809Y-52907200D02*
X234380952Y-52954819D01*
X234380952Y-52954819D02*
X234285714Y-52954819D01*
X235666666Y-52954819D02*
X235095238Y-52954819D01*
X235380952Y-52954819D02*
X235380952Y-51954819D01*
X235380952Y-51954819D02*
X235285714Y-52097676D01*
X235285714Y-52097676D02*
X235190476Y-52192914D01*
X235190476Y-52192914D02*
X235095238Y-52240533D01*
X188263095Y-59989819D02*
X188263095Y-60799342D01*
X188263095Y-60799342D02*
X188310714Y-60894580D01*
X188310714Y-60894580D02*
X188358333Y-60942200D01*
X188358333Y-60942200D02*
X188453571Y-60989819D01*
X188453571Y-60989819D02*
X188644047Y-60989819D01*
X188644047Y-60989819D02*
X188739285Y-60942200D01*
X188739285Y-60942200D02*
X188786904Y-60894580D01*
X188786904Y-60894580D02*
X188834523Y-60799342D01*
X188834523Y-60799342D02*
X188834523Y-59989819D01*
X189215476Y-59989819D02*
X189834523Y-59989819D01*
X189834523Y-59989819D02*
X189501190Y-60370771D01*
X189501190Y-60370771D02*
X189644047Y-60370771D01*
X189644047Y-60370771D02*
X189739285Y-60418390D01*
X189739285Y-60418390D02*
X189786904Y-60466009D01*
X189786904Y-60466009D02*
X189834523Y-60561247D01*
X189834523Y-60561247D02*
X189834523Y-60799342D01*
X189834523Y-60799342D02*
X189786904Y-60894580D01*
X189786904Y-60894580D02*
X189739285Y-60942200D01*
X189739285Y-60942200D02*
X189644047Y-60989819D01*
X189644047Y-60989819D02*
X189358333Y-60989819D01*
X189358333Y-60989819D02*
X189263095Y-60942200D01*
X189263095Y-60942200D02*
X189215476Y-60894580D01*
D12*
%TO.C,G\u002A\u002A\u002A*%
G36*
X195596018Y-37644802D02*
G01*
X195599769Y-37646648D01*
X195672598Y-37695387D01*
X195725796Y-37759169D01*
X195759880Y-37839909D01*
X195775364Y-37939524D01*
X195772764Y-38059930D01*
X195752596Y-38203042D01*
X195751341Y-38209746D01*
X195741696Y-38262970D01*
X195729486Y-38333412D01*
X195716850Y-38408655D01*
X195712566Y-38434790D01*
X195700607Y-38507373D01*
X195688641Y-38578397D01*
X195678659Y-38636101D01*
X195675757Y-38652333D01*
X195667197Y-38700775D01*
X195655688Y-38767682D01*
X195643138Y-38841910D01*
X195637220Y-38877377D01*
X195625036Y-38949913D01*
X195613124Y-39019367D01*
X195603308Y-39075166D01*
X195599703Y-39094920D01*
X195538257Y-39449882D01*
X195531501Y-39492498D01*
X195519856Y-39565329D01*
X195507836Y-39638311D01*
X195497622Y-39698251D01*
X195495536Y-39710041D01*
X195440920Y-40024091D01*
X195388629Y-40343824D01*
X195382090Y-40385174D01*
X195370037Y-40460197D01*
X195357942Y-40533009D01*
X195347589Y-40592977D01*
X195343078Y-40617720D01*
X195334145Y-40667127D01*
X195322518Y-40734403D01*
X195310220Y-40807783D01*
X195305718Y-40835263D01*
X195293782Y-40907844D01*
X195281873Y-40978867D01*
X195271969Y-41036571D01*
X195269099Y-41052806D01*
X195260574Y-41102232D01*
X195249404Y-41169536D01*
X195237533Y-41242941D01*
X195233185Y-41270348D01*
X195221088Y-41345638D01*
X195208451Y-41421942D01*
X195197455Y-41486152D01*
X195194479Y-41502894D01*
X195182744Y-41570145D01*
X195170873Y-41641563D01*
X195165502Y-41675428D01*
X195156505Y-41729299D01*
X195147487Y-41776452D01*
X195143199Y-41795452D01*
X195136199Y-41829289D01*
X195127182Y-41881356D01*
X195118458Y-41937980D01*
X195108400Y-42005067D01*
X195097653Y-42072911D01*
X195090065Y-42118015D01*
X195081962Y-42165628D01*
X195070992Y-42232261D01*
X195058892Y-42307284D01*
X195052025Y-42350561D01*
X195040009Y-42425580D01*
X195028012Y-42498390D01*
X195017801Y-42558357D01*
X195013385Y-42583107D01*
X195004415Y-42633530D01*
X194992810Y-42701129D01*
X194980697Y-42773452D01*
X194977457Y-42793148D01*
X194965524Y-42864547D01*
X194953388Y-42934760D01*
X194943210Y-42991335D01*
X194940977Y-43003189D01*
X194932378Y-43050810D01*
X194921016Y-43117455D01*
X194908686Y-43192489D01*
X194901784Y-43235735D01*
X194889830Y-43310749D01*
X194877997Y-43383554D01*
X194868023Y-43443520D01*
X194863766Y-43468281D01*
X194855283Y-43517679D01*
X194844000Y-43584943D01*
X194831883Y-43658314D01*
X194827392Y-43685824D01*
X194810909Y-43786617D01*
X194798240Y-43862261D01*
X194788510Y-43917245D01*
X194780847Y-43956055D01*
X194774378Y-43983182D01*
X194768228Y-44003112D01*
X194762982Y-44016817D01*
X194740157Y-44053132D01*
X194704028Y-44092046D01*
X194663221Y-44125966D01*
X194626363Y-44147298D01*
X194610647Y-44150915D01*
X194577979Y-44161791D01*
X194564324Y-44173420D01*
X194531947Y-44191127D01*
X194482082Y-44194521D01*
X194423400Y-44183980D01*
X194374640Y-44165132D01*
X194322532Y-44134433D01*
X194270157Y-44096314D01*
X194258441Y-44086379D01*
X194229295Y-44057564D01*
X194210783Y-44028383D01*
X194198535Y-43989046D01*
X194188184Y-43929766D01*
X194187999Y-43928529D01*
X194181655Y-43876396D01*
X194178722Y-43823276D01*
X194179595Y-43764999D01*
X194184669Y-43697393D01*
X194194341Y-43616288D01*
X194209007Y-43517513D01*
X194229061Y-43396897D01*
X194249451Y-43280744D01*
X194259406Y-43223809D01*
X194267816Y-43173806D01*
X194272234Y-43145717D01*
X194281939Y-43080831D01*
X194294336Y-43001398D01*
X194307398Y-42920109D01*
X194319103Y-42849655D01*
X194323690Y-42823154D01*
X194332335Y-42773804D01*
X194343997Y-42706607D01*
X194356643Y-42633295D01*
X194361397Y-42605611D01*
X194373856Y-42533094D01*
X194386089Y-42462122D01*
X194396073Y-42404425D01*
X194398919Y-42388068D01*
X194407351Y-42338671D01*
X194418594Y-42271408D01*
X194430689Y-42198039D01*
X194435179Y-42170526D01*
X194447220Y-42097935D01*
X194459400Y-42026905D01*
X194469690Y-41969200D01*
X194472726Y-41952983D01*
X194481316Y-41905358D01*
X194492650Y-41838709D01*
X194504941Y-41763670D01*
X194511813Y-41720437D01*
X194523851Y-41645407D01*
X194535989Y-41572590D01*
X194546434Y-41512621D01*
X194551015Y-41487891D01*
X194568575Y-41394751D01*
X194584745Y-41303609D01*
X194601465Y-41203242D01*
X194617081Y-41105316D01*
X194629061Y-41030296D01*
X194641002Y-40957486D01*
X194651145Y-40897519D01*
X194655520Y-40872770D01*
X194664227Y-40823371D01*
X194675701Y-40756107D01*
X194687945Y-40682736D01*
X194692462Y-40655227D01*
X194722947Y-40469750D01*
X194750043Y-40307373D01*
X194773458Y-40169807D01*
X194792902Y-40058765D01*
X194805886Y-39987596D01*
X194814767Y-39938190D01*
X194826353Y-39870915D01*
X194838630Y-39797536D01*
X194843130Y-39770053D01*
X194862257Y-39654258D01*
X194879725Y-39553147D01*
X194898164Y-39451705D01*
X194908793Y-39394979D01*
X194918315Y-39339141D01*
X194929111Y-39267674D01*
X194939055Y-39194764D01*
X194940297Y-39184938D01*
X194949157Y-39122632D01*
X194958719Y-39069061D01*
X194967289Y-39033369D01*
X194969462Y-39027407D01*
X194980108Y-38992896D01*
X194989345Y-38946369D01*
X194990628Y-38937389D01*
X195000398Y-38866052D01*
X195012429Y-38782151D01*
X195025460Y-38694077D01*
X195038230Y-38610223D01*
X195049480Y-38538979D01*
X195057949Y-38488738D01*
X195058209Y-38487300D01*
X195070953Y-38415255D01*
X195085926Y-38327715D01*
X195101528Y-38234322D01*
X195116162Y-38144715D01*
X195128228Y-38068535D01*
X195134094Y-38029710D01*
X195153025Y-37930090D01*
X195178250Y-37841827D01*
X195207431Y-37772365D01*
X195222909Y-37746824D01*
X195280186Y-37689494D01*
X195354343Y-37648446D01*
X195437172Y-37625859D01*
X195520467Y-37623918D01*
X195596018Y-37644802D01*
G37*
G36*
X198386348Y-37555856D02*
G01*
X200146047Y-37560938D01*
X200259756Y-37648032D01*
X200310709Y-37689957D01*
X200367478Y-37741297D01*
X200425097Y-37796988D01*
X200478599Y-37851970D01*
X200523019Y-37901182D01*
X200553390Y-37939562D01*
X200563897Y-37958005D01*
X200575796Y-37978793D01*
X200600069Y-38013979D01*
X200620158Y-38041038D01*
X200648228Y-38081461D01*
X200666513Y-38114792D01*
X200670526Y-38128379D01*
X200676928Y-38147622D01*
X200681804Y-38149734D01*
X200695156Y-38162664D01*
X200716621Y-38197553D01*
X200743044Y-38248551D01*
X200771268Y-38309806D01*
X200782936Y-38337271D01*
X200804452Y-38387612D01*
X200825716Y-38434935D01*
X200829172Y-38442292D01*
X200852938Y-38504261D01*
X200877393Y-38589401D01*
X200900926Y-38690963D01*
X200921926Y-38802201D01*
X200934248Y-38882165D01*
X200945423Y-38985385D01*
X200948684Y-39084852D01*
X200943614Y-39188402D01*
X200929798Y-39303868D01*
X200906819Y-39439086D01*
X200903811Y-39454991D01*
X200848662Y-39667320D01*
X200766569Y-39873095D01*
X200659982Y-40068617D01*
X200531353Y-40250181D01*
X200383131Y-40414088D01*
X200217767Y-40556635D01*
X200136594Y-40614030D01*
X200084087Y-40647736D01*
X200038228Y-40675395D01*
X200006920Y-40692296D01*
X200001567Y-40694556D01*
X199965388Y-40713321D01*
X199948402Y-40725746D01*
X199921492Y-40737552D01*
X199874877Y-40748087D01*
X199820877Y-40754847D01*
X199777134Y-40757229D01*
X199731669Y-40756979D01*
X199679191Y-40753599D01*
X199614408Y-40746592D01*
X199532030Y-40735460D01*
X199426763Y-40719707D01*
X199395274Y-40714836D01*
X199325977Y-40704327D01*
X199231637Y-40690412D01*
X199116937Y-40673771D01*
X198986562Y-40655082D01*
X198845195Y-40635025D01*
X198825162Y-40632198D01*
X198747632Y-40621069D01*
X198672867Y-40609995D01*
X198610625Y-40600438D01*
X198577614Y-40595076D01*
X198519281Y-40585717D01*
X198432999Y-40572743D01*
X198320574Y-40556416D01*
X198183812Y-40536996D01*
X198024516Y-40514745D01*
X198000000Y-40511347D01*
X197923680Y-40500549D01*
X197848430Y-40489513D01*
X197785470Y-40479900D01*
X197759953Y-40475789D01*
X197706524Y-40467662D01*
X197635807Y-40457943D01*
X197560339Y-40448330D01*
X197534908Y-40445280D01*
X197467071Y-40436484D01*
X197405717Y-40427085D01*
X197360331Y-40418592D01*
X197347371Y-40415390D01*
X197310665Y-40407847D01*
X197255104Y-40399996D01*
X197191783Y-40393368D01*
X197182339Y-40392577D01*
X197118813Y-40386341D01*
X197061389Y-40378780D01*
X197021161Y-40371383D01*
X197017306Y-40370384D01*
X196978445Y-40362553D01*
X196922818Y-40354808D01*
X196872368Y-40349711D01*
X196820792Y-40346065D01*
X196787318Y-40348751D01*
X196766717Y-40362911D01*
X196753756Y-40393690D01*
X196743205Y-40446230D01*
X196737128Y-40482693D01*
X196725985Y-40547908D01*
X196713994Y-40615289D01*
X196707996Y-40647726D01*
X196700151Y-40693905D01*
X196690038Y-40760075D01*
X196679111Y-40836453D01*
X196671162Y-40895274D01*
X196650184Y-41054480D01*
X196632629Y-41186355D01*
X196618164Y-41293340D01*
X196606456Y-41377875D01*
X196597174Y-41442399D01*
X196591407Y-41480390D01*
X196582959Y-41536145D01*
X196572558Y-41607506D01*
X196562257Y-41680343D01*
X196560861Y-41690431D01*
X196550584Y-41760823D01*
X196539491Y-41830410D01*
X196529725Y-41885858D01*
X196528340Y-41892971D01*
X196519395Y-41944759D01*
X196509408Y-42013004D01*
X196500318Y-42084304D01*
X196499030Y-42095511D01*
X196489900Y-42170608D01*
X196479294Y-42249263D01*
X196469372Y-42315522D01*
X196468550Y-42320555D01*
X196459089Y-42380939D01*
X196451044Y-42437592D01*
X196447014Y-42470585D01*
X196441702Y-42513958D01*
X196433515Y-42572556D01*
X196426250Y-42620614D01*
X196415617Y-42689583D01*
X196403033Y-42773167D01*
X196389745Y-42862887D01*
X196376995Y-42950259D01*
X196366030Y-43026803D01*
X196358095Y-43084038D01*
X196356878Y-43093207D01*
X196348791Y-43145898D01*
X196337815Y-43206962D01*
X196333592Y-43228234D01*
X196324109Y-43281254D01*
X196313746Y-43349796D01*
X196304662Y-43419528D01*
X196304223Y-43423272D01*
X196295577Y-43494306D01*
X196284201Y-43583027D01*
X196271367Y-43679963D01*
X196258348Y-43775640D01*
X196246416Y-43860582D01*
X196236841Y-43925317D01*
X196236755Y-43925871D01*
X196220269Y-44023254D01*
X196205315Y-44092174D01*
X196191494Y-44134112D01*
X196178407Y-44150550D01*
X196176163Y-44150915D01*
X196149548Y-44160621D01*
X196136955Y-44170410D01*
X196103115Y-44182830D01*
X196072120Y-44178952D01*
X196036508Y-44170890D01*
X195979703Y-44158690D01*
X195909938Y-44144074D01*
X195835448Y-44128765D01*
X195764467Y-44114487D01*
X195755889Y-44112788D01*
X195724214Y-44098665D01*
X195687689Y-44072189D01*
X195683100Y-44068065D01*
X195641487Y-44029499D01*
X195659145Y-43898919D01*
X195669198Y-43826614D01*
X195679762Y-43753894D01*
X195688828Y-43694524D01*
X195690226Y-43685824D01*
X195715410Y-43528965D01*
X195736112Y-43395202D01*
X195753294Y-43278125D01*
X195767914Y-43171322D01*
X195772215Y-43138216D01*
X195782900Y-43058317D01*
X195794437Y-42977546D01*
X195805114Y-42907673D01*
X195810432Y-42875664D01*
X195820455Y-42815334D01*
X195828990Y-42758716D01*
X195833289Y-42725635D01*
X195838787Y-42682256D01*
X195847090Y-42623650D01*
X195854371Y-42575605D01*
X195863182Y-42514327D01*
X195873173Y-42437144D01*
X195882563Y-42358008D01*
X195885041Y-42335558D01*
X195893306Y-42269335D01*
X195902564Y-42211232D01*
X195911336Y-42169987D01*
X195915012Y-42158567D01*
X195924343Y-42121465D01*
X195929331Y-42072307D01*
X195929592Y-42059536D01*
X195933054Y-42007128D01*
X195941612Y-41959431D01*
X195943955Y-41951471D01*
X195951972Y-41917391D01*
X195961330Y-41862829D01*
X195970497Y-41797170D01*
X195974272Y-41765446D01*
X195987569Y-41654167D01*
X196002838Y-41538669D01*
X196018887Y-41427188D01*
X196034524Y-41327954D01*
X196048555Y-41249202D01*
X196050311Y-41240342D01*
X196061274Y-41173900D01*
X196069597Y-41102221D01*
X196071620Y-41075310D01*
X196076995Y-41013281D01*
X196085866Y-40941131D01*
X196092878Y-40895274D01*
X196101942Y-40838778D01*
X196113246Y-40763724D01*
X196125129Y-40681309D01*
X196132905Y-40625221D01*
X196145139Y-40535726D01*
X196158683Y-40437446D01*
X196171456Y-40345458D01*
X196177447Y-40302658D01*
X196187487Y-40231199D01*
X196196917Y-40164018D01*
X196204323Y-40111191D01*
X196206922Y-40092616D01*
X196215332Y-40039914D01*
X196226495Y-39978838D01*
X196230731Y-39957590D01*
X196240224Y-39904572D01*
X196250612Y-39836033D01*
X196259734Y-39766303D01*
X196260175Y-39762552D01*
X196272577Y-39662115D01*
X196277030Y-39628650D01*
X196972153Y-39628650D01*
X196974268Y-39652215D01*
X196980340Y-39682302D01*
X196991149Y-39699508D01*
X197014308Y-39708684D01*
X197057428Y-39714679D01*
X197075277Y-39716571D01*
X197112114Y-39719043D01*
X197174721Y-39721657D01*
X197258863Y-39724303D01*
X197360303Y-39726870D01*
X197474807Y-39729248D01*
X197598140Y-39731327D01*
X197692439Y-39732607D01*
X197977491Y-39736084D01*
X198233959Y-39739246D01*
X198463263Y-39742117D01*
X198666823Y-39744720D01*
X198846060Y-39747076D01*
X199002394Y-39749209D01*
X199137244Y-39751140D01*
X199252031Y-39752894D01*
X199348175Y-39754491D01*
X199427096Y-39755956D01*
X199490215Y-39757310D01*
X199538951Y-39758576D01*
X199574724Y-39759777D01*
X199598955Y-39760935D01*
X199613064Y-39762073D01*
X199618471Y-39763214D01*
X199618541Y-39763274D01*
X199630268Y-39767996D01*
X199655675Y-39769521D01*
X199698893Y-39767689D01*
X199764057Y-39762338D01*
X199843949Y-39754476D01*
X199919478Y-39745510D01*
X199974684Y-39735055D01*
X200019224Y-39720407D01*
X200062755Y-39698859D01*
X200081835Y-39687828D01*
X200194048Y-39608138D01*
X200283734Y-39513941D01*
X200354714Y-39400535D01*
X200398916Y-39297460D01*
X200410416Y-39244480D01*
X200415860Y-39172001D01*
X200415319Y-39089898D01*
X200408866Y-39008043D01*
X200396576Y-38936311D01*
X200396228Y-38934866D01*
X200356198Y-38827080D01*
X200292324Y-38723226D01*
X200210568Y-38630670D01*
X200116894Y-38556781D01*
X200068022Y-38529413D01*
X200040196Y-38515798D01*
X200015767Y-38504116D01*
X199992249Y-38494037D01*
X199967155Y-38485232D01*
X199937997Y-38477371D01*
X199902290Y-38470124D01*
X199857547Y-38463161D01*
X199801281Y-38456153D01*
X199731004Y-38448771D01*
X199644232Y-38440684D01*
X199538476Y-38431564D01*
X199411250Y-38421080D01*
X199260068Y-38408902D01*
X199082442Y-38394702D01*
X199005198Y-38388523D01*
X198872938Y-38377974D01*
X198746994Y-38368004D01*
X198631229Y-38358913D01*
X198529509Y-38351003D01*
X198445697Y-38344573D01*
X198383658Y-38339923D01*
X198347256Y-38337354D01*
X198345068Y-38337216D01*
X198310370Y-38334888D01*
X198249961Y-38330613D01*
X198168051Y-38324701D01*
X198068850Y-38317456D01*
X197956567Y-38309187D01*
X197835413Y-38300201D01*
X197752451Y-38294011D01*
X197628054Y-38284862D01*
X197510007Y-38276466D01*
X197402468Y-38269099D01*
X197309593Y-38263035D01*
X197235538Y-38258546D01*
X197184459Y-38255908D01*
X197165161Y-38255311D01*
X197087971Y-38254755D01*
X197079287Y-38318517D01*
X197076196Y-38348324D01*
X197071351Y-38404113D01*
X197065058Y-38481931D01*
X197057625Y-38577825D01*
X197049360Y-38687843D01*
X197040571Y-38808031D01*
X197033472Y-38907383D01*
X197024255Y-39033850D01*
X197014966Y-39154167D01*
X197005964Y-39264206D01*
X196997607Y-39359834D01*
X196990252Y-39436923D01*
X196984257Y-39491343D01*
X196980830Y-39515003D01*
X196973513Y-39572949D01*
X196972153Y-39628650D01*
X196277030Y-39628650D01*
X196287647Y-39548854D01*
X196303916Y-39433203D01*
X196319911Y-39325596D01*
X196334162Y-39236469D01*
X196335269Y-39229947D01*
X196345032Y-39167830D01*
X196353120Y-39107749D01*
X196356887Y-39072416D01*
X196362251Y-39024579D01*
X196370999Y-38962711D01*
X196378751Y-38914885D01*
X196389776Y-38847022D01*
X196401563Y-38768037D01*
X196410253Y-38704843D01*
X196418559Y-38647256D01*
X196426920Y-38599689D01*
X196433673Y-38571471D01*
X196434301Y-38569817D01*
X196440318Y-38544512D01*
X196447426Y-38498680D01*
X196454196Y-38441693D01*
X196454894Y-38434790D01*
X196465728Y-38333243D01*
X196477919Y-38231729D01*
X196490508Y-38137359D01*
X196502535Y-38057246D01*
X196513042Y-37998503D01*
X196514854Y-37990047D01*
X196522726Y-37944782D01*
X196530849Y-37881917D01*
X196537660Y-37813799D01*
X196538581Y-37802510D01*
X196546743Y-37728251D01*
X196559245Y-37673800D01*
X196578722Y-37629007D01*
X196587534Y-37613958D01*
X196626649Y-37550774D01*
X198386348Y-37555856D01*
G37*
G36*
X205510896Y-36216307D02*
G01*
X205536793Y-36236141D01*
X205565328Y-36272008D01*
X205575917Y-36316343D01*
X205576491Y-36335266D01*
X205568173Y-36388824D01*
X205545766Y-36457437D01*
X205513096Y-36532088D01*
X205473985Y-36603760D01*
X205443304Y-36649364D01*
X205414531Y-36689503D01*
X205377942Y-36742950D01*
X205343945Y-36794337D01*
X205268394Y-36898710D01*
X205172096Y-37012662D01*
X205060326Y-37130828D01*
X204938357Y-37247841D01*
X204811462Y-37358336D01*
X204713821Y-37435518D01*
X204647751Y-37483713D01*
X204575207Y-37534037D01*
X204500939Y-37583487D01*
X204429695Y-37629059D01*
X204366223Y-37667748D01*
X204315272Y-37696551D01*
X204281589Y-37712464D01*
X204272611Y-37714648D01*
X204253327Y-37724873D01*
X204242029Y-37736188D01*
X204215240Y-37754496D01*
X204176429Y-37768025D01*
X204131092Y-37781902D01*
X204080383Y-37802941D01*
X204071332Y-37807370D01*
X204036395Y-37827093D01*
X204024586Y-37842045D01*
X204031283Y-37858869D01*
X204033471Y-37861800D01*
X204052111Y-37885621D01*
X204083157Y-37924883D01*
X204120284Y-37971590D01*
X204124755Y-37977200D01*
X204160764Y-38022380D01*
X204190093Y-38059208D01*
X204207168Y-38080687D01*
X204208382Y-38082221D01*
X204225456Y-38108990D01*
X204231032Y-38119728D01*
X204245054Y-38145907D01*
X204267633Y-38185298D01*
X204277653Y-38202244D01*
X204337891Y-38309049D01*
X204387921Y-38412360D01*
X204429662Y-38518101D01*
X204465034Y-38632197D01*
X204495954Y-38760575D01*
X204524341Y-38909158D01*
X204542425Y-39019905D01*
X204547419Y-39072396D01*
X204550532Y-39148911D01*
X204551876Y-39243534D01*
X204551567Y-39350351D01*
X204549718Y-39463447D01*
X204546444Y-39576905D01*
X204541860Y-39684812D01*
X204536079Y-39781250D01*
X204529216Y-39860306D01*
X204525608Y-39890077D01*
X204508897Y-40010598D01*
X204495614Y-40104707D01*
X204485240Y-40175740D01*
X204477258Y-40227029D01*
X204471152Y-40261910D01*
X204466403Y-40283716D01*
X204462764Y-40295156D01*
X204454171Y-40325014D01*
X204446098Y-40367032D01*
X204445627Y-40370171D01*
X204434531Y-40433595D01*
X204416435Y-40519167D01*
X204393627Y-40617720D01*
X204384349Y-40657685D01*
X204370288Y-40719395D01*
X204353140Y-40795294D01*
X204334601Y-40877829D01*
X204316368Y-40959446D01*
X204300135Y-41032590D01*
X204287599Y-41089707D01*
X204285843Y-41097814D01*
X204273221Y-41153823D01*
X204259104Y-41213260D01*
X204257052Y-41221589D01*
X204242386Y-41280688D01*
X204227233Y-41341746D01*
X204225405Y-41349114D01*
X204211591Y-41406664D01*
X204198261Y-41464999D01*
X204196531Y-41472888D01*
X204186277Y-41517289D01*
X204173210Y-41567920D01*
X204155195Y-41632756D01*
X204135362Y-41701683D01*
X204120266Y-41753675D01*
X204107048Y-41799202D01*
X204092619Y-41849897D01*
X204078604Y-41900472D01*
X204062006Y-41958618D01*
X204042465Y-42022920D01*
X204023079Y-42083576D01*
X204006947Y-42130784D01*
X204000352Y-42148021D01*
X203990320Y-42174755D01*
X203973603Y-42222135D01*
X203952942Y-42282319D01*
X203940046Y-42320555D01*
X203914133Y-42394463D01*
X203885886Y-42469574D01*
X203860040Y-42533464D01*
X203851431Y-42553101D01*
X203822372Y-42617547D01*
X203789663Y-42690736D01*
X203767539Y-42740638D01*
X203696631Y-42886765D01*
X203611754Y-43037691D01*
X203517600Y-43186307D01*
X203418864Y-43325506D01*
X203320237Y-43448179D01*
X203250654Y-43523564D01*
X203195729Y-43576667D01*
X203134374Y-43632486D01*
X203071169Y-43687256D01*
X203010694Y-43737210D01*
X202957527Y-43778584D01*
X202916250Y-43807612D01*
X202891441Y-43820527D01*
X202889097Y-43820850D01*
X202870892Y-43828532D01*
X202837074Y-43848176D01*
X202812949Y-43863659D01*
X202755884Y-43894721D01*
X202677575Y-43928111D01*
X202586346Y-43961066D01*
X202490525Y-43990821D01*
X202398435Y-44014610D01*
X202318405Y-44029669D01*
X202309611Y-44030806D01*
X202253511Y-44036992D01*
X202204454Y-44040475D01*
X202153681Y-44041358D01*
X202092433Y-44039742D01*
X202011952Y-44035732D01*
X201990785Y-44034537D01*
X201910224Y-44025884D01*
X201812548Y-44009258D01*
X201708837Y-43986954D01*
X201610172Y-43961267D01*
X201555700Y-43944417D01*
X201398880Y-43880266D01*
X201251956Y-43797549D01*
X201119033Y-43699654D01*
X201004213Y-43589968D01*
X200911601Y-43471878D01*
X200851539Y-43363260D01*
X200826207Y-43306545D01*
X200800582Y-43249511D01*
X200790969Y-43228234D01*
X200771553Y-43174172D01*
X200756393Y-43112743D01*
X200753550Y-43095707D01*
X200741780Y-43035755D01*
X200725007Y-42975418D01*
X200719852Y-42960680D01*
X200710420Y-42919696D01*
X200702434Y-42854227D01*
X200696036Y-42769767D01*
X200691370Y-42671809D01*
X200688581Y-42565845D01*
X200687811Y-42457370D01*
X200689204Y-42351876D01*
X200692905Y-42254857D01*
X200699056Y-42171805D01*
X200699184Y-42170526D01*
X200706570Y-42096433D01*
X200713436Y-42025741D01*
X200718801Y-41968660D01*
X200720866Y-41945481D01*
X200727209Y-41891468D01*
X200737210Y-41826355D01*
X200744155Y-41787950D01*
X200756986Y-41718556D01*
X200769973Y-41642949D01*
X200775593Y-41607915D01*
X200791953Y-41516505D01*
X200815958Y-41402938D01*
X200846228Y-41273675D01*
X200851653Y-41251595D01*
X200864765Y-41198489D01*
X200879032Y-41140593D01*
X200881253Y-41131571D01*
X200895197Y-41075379D01*
X200909211Y-41019615D01*
X200911259Y-41011547D01*
X200925455Y-40955762D01*
X200939708Y-40899751D01*
X200939893Y-40899025D01*
X200953588Y-40844593D01*
X200967746Y-40787467D01*
X200968901Y-40782752D01*
X200982811Y-40728244D01*
X200997205Y-40675081D01*
X200998580Y-40670230D01*
X201011806Y-40622956D01*
X201023057Y-40581277D01*
X201023334Y-40580212D01*
X201036410Y-40538146D01*
X201046193Y-40512699D01*
X201055173Y-40488645D01*
X201071499Y-40441627D01*
X201093278Y-40377230D01*
X201118612Y-40301037D01*
X201135331Y-40250148D01*
X201161973Y-40169788D01*
X201186410Y-40098130D01*
X201206722Y-40040650D01*
X201220990Y-40002821D01*
X201226007Y-39991550D01*
X201238482Y-39959518D01*
X201240638Y-39945007D01*
X201246135Y-39924733D01*
X201261100Y-39882664D01*
X201283243Y-39824611D01*
X201310272Y-39756385D01*
X201339897Y-39683797D01*
X201369828Y-39612658D01*
X201389435Y-39567513D01*
X201476840Y-39371686D01*
X201554652Y-39202091D01*
X201623777Y-39056853D01*
X201685123Y-38934094D01*
X201739595Y-38831939D01*
X201772350Y-38774674D01*
X201802695Y-38722517D01*
X201826133Y-38680649D01*
X201839191Y-38655350D01*
X201840756Y-38651013D01*
X201849186Y-38630340D01*
X201872581Y-38589664D01*
X201908099Y-38533133D01*
X201952898Y-38464895D01*
X202004135Y-38389097D01*
X202058970Y-38309888D01*
X202114559Y-38231414D01*
X202168060Y-38157825D01*
X202216633Y-38093267D01*
X202257433Y-38041889D01*
X202261332Y-38037212D01*
X202293606Y-38001241D01*
X202338752Y-37954246D01*
X202392291Y-37900527D01*
X202449740Y-37844382D01*
X202506620Y-37790110D01*
X202558448Y-37742010D01*
X202600745Y-37704380D01*
X202629029Y-37681520D01*
X202637030Y-37676786D01*
X202660660Y-37663954D01*
X202665918Y-37655116D01*
X202678607Y-37644137D01*
X202713272Y-37623122D01*
X202764810Y-37594964D01*
X202828121Y-37562554D01*
X202836802Y-37558252D01*
X203007686Y-37473889D01*
X203018744Y-37402981D01*
X203026464Y-37349337D01*
X203032528Y-37300064D01*
X203033833Y-37287064D01*
X203045545Y-37158247D01*
X203055456Y-37055851D01*
X203064198Y-36976390D01*
X203072400Y-36916378D01*
X203080693Y-36872329D01*
X203089708Y-36840758D01*
X203100074Y-36818176D01*
X203112422Y-36801100D01*
X203123827Y-36789366D01*
X203143424Y-36771892D01*
X203162817Y-36759857D01*
X203188023Y-36752059D01*
X203225055Y-36747293D01*
X203279929Y-36744358D01*
X203358660Y-36742049D01*
X203360642Y-36741998D01*
X203439816Y-36740185D01*
X203494812Y-36740107D01*
X203531446Y-36742587D01*
X203555533Y-36748446D01*
X203572887Y-36758508D01*
X203589323Y-36773596D01*
X203590206Y-36774478D01*
X203627645Y-36811917D01*
X203609370Y-37102001D01*
X203601415Y-37226695D01*
X203595340Y-37324935D01*
X203591544Y-37400236D01*
X203590425Y-37456114D01*
X203592379Y-37496083D01*
X203597807Y-37523660D01*
X203607104Y-37542359D01*
X203620670Y-37555696D01*
X203638902Y-37567186D01*
X203662198Y-37580344D01*
X203663615Y-37581175D01*
X203707632Y-37606729D01*
X203742490Y-37626347D01*
X203756588Y-37633774D01*
X203780683Y-37631391D01*
X203812296Y-37614232D01*
X203839575Y-37590437D01*
X203850680Y-37569148D01*
X203861768Y-37543695D01*
X203892467Y-37500824D01*
X203940177Y-37443293D01*
X204002298Y-37373859D01*
X204076229Y-37295277D01*
X204159370Y-37210304D01*
X204249119Y-37121697D01*
X204342877Y-37032214D01*
X204438042Y-36944609D01*
X204450031Y-36933817D01*
X204508579Y-36881039D01*
X204563092Y-36831513D01*
X204607422Y-36790848D01*
X204635135Y-36764929D01*
X204673364Y-36730993D01*
X204732168Y-36682432D01*
X204807840Y-36622248D01*
X204893857Y-36555595D01*
X204913782Y-36539345D01*
X204946390Y-36511886D01*
X204961370Y-36499101D01*
X205010603Y-36460105D01*
X205077295Y-36411541D01*
X205153069Y-36359099D01*
X205229546Y-36308470D01*
X205298351Y-36265344D01*
X205344394Y-36238918D01*
X205412204Y-36209156D01*
X205465773Y-36201647D01*
X205510896Y-36216307D01*
G37*
G36*
X192300288Y-37352946D02*
G01*
X192332603Y-37387226D01*
X192343886Y-37430276D01*
X192339328Y-37450980D01*
X192326601Y-37495721D01*
X192307131Y-37560104D01*
X192282340Y-37639735D01*
X192253653Y-37730219D01*
X192222493Y-37827161D01*
X192190285Y-37926168D01*
X192158452Y-38022844D01*
X192128418Y-38112795D01*
X192101607Y-38191626D01*
X192079444Y-38254943D01*
X192063350Y-38298350D01*
X192059738Y-38307265D01*
X192048030Y-38338947D01*
X192032452Y-38385827D01*
X192024170Y-38412286D01*
X192006748Y-38467500D01*
X191983603Y-38538285D01*
X191956486Y-38619550D01*
X191927148Y-38706209D01*
X191897340Y-38793173D01*
X191868814Y-38875354D01*
X191843320Y-38947663D01*
X191822609Y-39005011D01*
X191808433Y-39042312D01*
X191803518Y-39053458D01*
X191790892Y-39086897D01*
X191788777Y-39102422D01*
X191782073Y-39135189D01*
X191775315Y-39151385D01*
X191764605Y-39177839D01*
X191748626Y-39223898D01*
X191730543Y-39280368D01*
X191727605Y-39289958D01*
X191709825Y-39345205D01*
X191693791Y-39389492D01*
X191682486Y-39414697D01*
X191681055Y-39416733D01*
X191671103Y-39442183D01*
X191668754Y-39464608D01*
X191662749Y-39495176D01*
X191653751Y-39507501D01*
X191642031Y-39528234D01*
X191638748Y-39552510D01*
X191633084Y-39583926D01*
X191623745Y-39597519D01*
X191611171Y-39618666D01*
X191608742Y-39636115D01*
X191601351Y-39674859D01*
X191594197Y-39691491D01*
X191584216Y-39715190D01*
X191565741Y-39765170D01*
X191539543Y-39839175D01*
X191506399Y-39934948D01*
X191467083Y-40050233D01*
X191422367Y-40182773D01*
X191373028Y-40330312D01*
X191319838Y-40490593D01*
X191315010Y-40505198D01*
X191287298Y-40588019D01*
X191261841Y-40662169D01*
X191240495Y-40722395D01*
X191225113Y-40763446D01*
X191218434Y-40778798D01*
X191205784Y-40812225D01*
X191203662Y-40827761D01*
X191196957Y-40860528D01*
X191190198Y-40876724D01*
X191180911Y-40899826D01*
X191164514Y-40945660D01*
X191143034Y-41008376D01*
X191118495Y-41082124D01*
X191108466Y-41112817D01*
X191077568Y-41207265D01*
X191043512Y-41310363D01*
X191010375Y-41409824D01*
X190982232Y-41493359D01*
X190981541Y-41495393D01*
X190956413Y-41570095D01*
X190932912Y-41641367D01*
X190913875Y-41700525D01*
X190903133Y-41735440D01*
X190888779Y-41778839D01*
X190875423Y-41810183D01*
X190870988Y-41817206D01*
X190860187Y-41843532D01*
X190858594Y-41858668D01*
X190851221Y-41895173D01*
X190843807Y-41911928D01*
X190834751Y-41933655D01*
X190818056Y-41979180D01*
X190795378Y-42043770D01*
X190768373Y-42122692D01*
X190738698Y-42211214D01*
X190732296Y-42230537D01*
X190691384Y-42353792D01*
X190651104Y-42474236D01*
X190612788Y-42587958D01*
X190577766Y-42691050D01*
X190547372Y-42779602D01*
X190522936Y-42849703D01*
X190505791Y-42897445D01*
X190499783Y-42913172D01*
X190470391Y-42997861D01*
X190459559Y-43059995D01*
X190467287Y-43099251D01*
X190493574Y-43115309D01*
X190500463Y-43115712D01*
X190537680Y-43107334D01*
X190593079Y-43084448D01*
X190660745Y-43050419D01*
X190734762Y-43008618D01*
X190809212Y-42962410D01*
X190878181Y-42915165D01*
X190935752Y-42870250D01*
X190943536Y-42863482D01*
X190968166Y-42842088D01*
X191008153Y-42807790D01*
X191055944Y-42767059D01*
X191069141Y-42755853D01*
X191115720Y-42716215D01*
X191154550Y-42682948D01*
X191179086Y-42661666D01*
X191182817Y-42658334D01*
X191204772Y-42638766D01*
X191237117Y-42610406D01*
X191242829Y-42605434D01*
X191265676Y-42585526D01*
X191307593Y-42548954D01*
X191365057Y-42498795D01*
X191434541Y-42438127D01*
X191512520Y-42370027D01*
X191586538Y-42305375D01*
X191672760Y-42230079D01*
X191756966Y-42156580D01*
X191834848Y-42088638D01*
X191902099Y-42030009D01*
X191954410Y-41984450D01*
X191981979Y-41960484D01*
X192030727Y-41918002D01*
X192074546Y-41879508D01*
X192105469Y-41852008D01*
X192109933Y-41847962D01*
X192136745Y-41823952D01*
X192178238Y-41787305D01*
X192226439Y-41745055D01*
X192237458Y-41735440D01*
X192286071Y-41692899D01*
X192329781Y-41654368D01*
X192360613Y-41626881D01*
X192364983Y-41622918D01*
X192391795Y-41598908D01*
X192433288Y-41562260D01*
X192481489Y-41520011D01*
X192492509Y-41510396D01*
X192541121Y-41467855D01*
X192584831Y-41429323D01*
X192615663Y-41401837D01*
X192620034Y-41397873D01*
X192646849Y-41373987D01*
X192688498Y-41337535D01*
X192737025Y-41295470D01*
X192748766Y-41285351D01*
X192808128Y-41233902D01*
X192872371Y-41177683D01*
X192927789Y-41128692D01*
X192928766Y-41127820D01*
X192971431Y-41089961D01*
X193029789Y-41038420D01*
X193096951Y-40979270D01*
X193166026Y-40918585D01*
X193184052Y-40902776D01*
X193252486Y-40842710D01*
X193320887Y-40782545D01*
X193382356Y-40728355D01*
X193429996Y-40686218D01*
X193439552Y-40677732D01*
X193561135Y-40569606D01*
X193662297Y-40479759D01*
X193745084Y-40406578D01*
X193811541Y-40348452D01*
X193863713Y-40303768D01*
X193903646Y-40270915D01*
X193933384Y-40248279D01*
X193954973Y-40234249D01*
X193970457Y-40227212D01*
X193981883Y-40225557D01*
X193991295Y-40227671D01*
X194000739Y-40231942D01*
X194003463Y-40233212D01*
X194014663Y-40238375D01*
X194023688Y-40244472D01*
X194030359Y-40254137D01*
X194034497Y-40269999D01*
X194035923Y-40294691D01*
X194034458Y-40330844D01*
X194029924Y-40381087D01*
X194022142Y-40448054D01*
X194010933Y-40534375D01*
X193996119Y-40642682D01*
X193977519Y-40775604D01*
X193956435Y-40925280D01*
X193945125Y-41005006D01*
X193933768Y-41084112D01*
X193923906Y-41151912D01*
X193918579Y-41187832D01*
X193906838Y-41267595D01*
X193892152Y-41370118D01*
X193875505Y-41488414D01*
X193857879Y-41615496D01*
X193840257Y-41744376D01*
X193838417Y-41757944D01*
X193825449Y-41850353D01*
X193814460Y-41918382D01*
X193804087Y-41967471D01*
X193792964Y-42003062D01*
X193779726Y-42030593D01*
X193764158Y-42053954D01*
X193743303Y-42070756D01*
X193698066Y-42099136D01*
X193631115Y-42137686D01*
X193545119Y-42184999D01*
X193442746Y-42239668D01*
X193326666Y-42300286D01*
X193199547Y-42365445D01*
X193064057Y-42433739D01*
X192922865Y-42503761D01*
X192778640Y-42574102D01*
X192767338Y-42579563D01*
X192718501Y-42603572D01*
X192678470Y-42624018D01*
X192658948Y-42634723D01*
X192641468Y-42643995D01*
X192599826Y-42665416D01*
X192536665Y-42697646D01*
X192454625Y-42739345D01*
X192356347Y-42789172D01*
X192244474Y-42845788D01*
X192121647Y-42907850D01*
X191990506Y-42974020D01*
X191961311Y-42988739D01*
X191757298Y-43091609D01*
X191555185Y-43193582D01*
X191357173Y-43293542D01*
X191165463Y-43390378D01*
X190982254Y-43482976D01*
X190809747Y-43570221D01*
X190650144Y-43651001D01*
X190505644Y-43724203D01*
X190378448Y-43788712D01*
X190270756Y-43843415D01*
X190184771Y-43887199D01*
X190122690Y-43918951D01*
X190108446Y-43926278D01*
X190027577Y-43967367D01*
X189968437Y-43995322D01*
X189926435Y-44011411D01*
X189896978Y-44016903D01*
X189875474Y-44013069D01*
X189857331Y-44001176D01*
X189852654Y-43996974D01*
X189830019Y-43966053D01*
X189828753Y-43927816D01*
X189830181Y-43920211D01*
X189839472Y-43870449D01*
X189847537Y-43820850D01*
X189856583Y-43775760D01*
X189867793Y-43739245D01*
X189868179Y-43738334D01*
X189878746Y-43703849D01*
X189888211Y-43657350D01*
X189889579Y-43648316D01*
X189896915Y-43603045D01*
X189908070Y-43541567D01*
X189920656Y-43477033D01*
X189920909Y-43475782D01*
X189933499Y-43411323D01*
X189944707Y-43349652D01*
X189952145Y-43303920D01*
X189952240Y-43303249D01*
X189960988Y-43256485D01*
X189971673Y-43218224D01*
X189973640Y-43213231D01*
X189984799Y-43177414D01*
X189993932Y-43132270D01*
X189994161Y-43130715D01*
X190002034Y-43083381D01*
X190012954Y-43025737D01*
X190017574Y-43003189D01*
X190027969Y-42951728D01*
X190041065Y-42883912D01*
X190054322Y-42812934D01*
X190056564Y-42800650D01*
X190069239Y-42731967D01*
X190081846Y-42665417D01*
X190092024Y-42613418D01*
X190093612Y-42605611D01*
X190105391Y-42547222D01*
X190118128Y-42482581D01*
X190121900Y-42463083D01*
X190132144Y-42410535D01*
X190145583Y-42342592D01*
X190159446Y-42273265D01*
X190160497Y-42268045D01*
X190174189Y-42199225D01*
X190187547Y-42130659D01*
X190197845Y-42076353D01*
X190198462Y-42073006D01*
X190210741Y-42009234D01*
X190224602Y-41941422D01*
X190228548Y-41922977D01*
X190245124Y-41844694D01*
X190263159Y-41756187D01*
X190281334Y-41664299D01*
X190298329Y-41575873D01*
X190312826Y-41497752D01*
X190323504Y-41436778D01*
X190328353Y-41405375D01*
X190336968Y-41360249D01*
X190348119Y-41323729D01*
X190348494Y-41322859D01*
X190359806Y-41287040D01*
X190369007Y-41241894D01*
X190369235Y-41240342D01*
X190377264Y-41193088D01*
X190388595Y-41135525D01*
X190393475Y-41112817D01*
X190404450Y-41060075D01*
X190417671Y-40991885D01*
X190430400Y-40922390D01*
X190431213Y-40917779D01*
X190443757Y-40848733D01*
X190456913Y-40779988D01*
X190467969Y-40725683D01*
X190468604Y-40722741D01*
X190481655Y-40661535D01*
X190494732Y-40598519D01*
X190498440Y-40580212D01*
X190510194Y-40521925D01*
X190523297Y-40457369D01*
X190527312Y-40437684D01*
X190542099Y-40363506D01*
X190557818Y-40281649D01*
X190572939Y-40200403D01*
X190585932Y-40128057D01*
X190595264Y-40072899D01*
X190597974Y-40055109D01*
X190606885Y-40010002D01*
X190618162Y-39973485D01*
X190618547Y-39972593D01*
X190629859Y-39936774D01*
X190639060Y-39891628D01*
X190639288Y-39890077D01*
X190647539Y-39840902D01*
X190658590Y-39784010D01*
X190661551Y-39770053D01*
X190671447Y-39722667D01*
X190684406Y-39658177D01*
X190697947Y-39588971D01*
X190700628Y-39575015D01*
X190714012Y-39506386D01*
X190727392Y-39439878D01*
X190738268Y-39387879D01*
X190739997Y-39379976D01*
X190752997Y-39319187D01*
X190765910Y-39255718D01*
X190768014Y-39244950D01*
X190780670Y-39186627D01*
X190795388Y-39128083D01*
X190798375Y-39117425D01*
X190811473Y-39068977D01*
X190821659Y-39026216D01*
X190822947Y-39019905D01*
X190831324Y-38980327D01*
X190842586Y-38931154D01*
X190844682Y-38922386D01*
X190853895Y-38876668D01*
X190864129Y-38814589D01*
X190873132Y-38749852D01*
X190882583Y-38681605D01*
X190893612Y-38613207D01*
X190903257Y-38562315D01*
X190915650Y-38501583D01*
X190931564Y-38418921D01*
X190949565Y-38321990D01*
X190968222Y-38218456D01*
X190978981Y-38157236D01*
X190990831Y-38093508D01*
X191004531Y-38025731D01*
X191008517Y-38007206D01*
X191021426Y-37946053D01*
X191033936Y-37883075D01*
X191037392Y-37864678D01*
X191057924Y-37757914D01*
X191077737Y-37676693D01*
X191100706Y-37616908D01*
X191130705Y-37574449D01*
X191171609Y-37545207D01*
X191227294Y-37525075D01*
X191301635Y-37509944D01*
X191383422Y-37497801D01*
X191460813Y-37486006D01*
X191535720Y-37472855D01*
X191598121Y-37460195D01*
X191629791Y-37452390D01*
X191676663Y-37441419D01*
X191743454Y-37428778D01*
X191820278Y-37416232D01*
X191878795Y-37407912D01*
X191957530Y-37396469D01*
X192034543Y-37383460D01*
X192099574Y-37370708D01*
X192133845Y-37362540D01*
X192187172Y-37349766D01*
X192234579Y-37341486D01*
X192255294Y-37339753D01*
X192300288Y-37352946D01*
G37*
G36*
X188769501Y-37265471D02*
G01*
X188807947Y-37301414D01*
X188816805Y-37315799D01*
X188836437Y-37351168D01*
X188847734Y-37369580D01*
X188861574Y-37392183D01*
X188886039Y-37433487D01*
X188916807Y-37486175D01*
X188931045Y-37510759D01*
X188998904Y-37618957D01*
X189061903Y-37699372D01*
X189121641Y-37753523D01*
X189179716Y-37782928D01*
X189224584Y-37789663D01*
X189269890Y-37782183D01*
X189329944Y-37762317D01*
X189394264Y-37733926D01*
X189433313Y-37712777D01*
X189466912Y-37695287D01*
X189478322Y-37690241D01*
X189505434Y-37678444D01*
X189546361Y-37659942D01*
X189561825Y-37652829D01*
X189613733Y-37636494D01*
X189677726Y-37626852D01*
X189742519Y-37624558D01*
X189796824Y-37630263D01*
X189819843Y-37637883D01*
X189853590Y-37654410D01*
X189884138Y-37668811D01*
X189942987Y-37708102D01*
X190006729Y-37771721D01*
X190072285Y-37855064D01*
X190136579Y-37953531D01*
X190196534Y-38062519D01*
X190249073Y-38177426D01*
X190280926Y-38262256D01*
X190307958Y-38360182D01*
X190329109Y-38473620D01*
X190344257Y-38596984D01*
X190353280Y-38724693D01*
X190356058Y-38851162D01*
X190352470Y-38970808D01*
X190342394Y-39078048D01*
X190325708Y-39167298D01*
X190302292Y-39232974D01*
X190302023Y-39233494D01*
X190290321Y-39264986D01*
X190288255Y-39278503D01*
X190279037Y-39301304D01*
X190255165Y-39339684D01*
X190221854Y-39386736D01*
X190184322Y-39435557D01*
X190147786Y-39479239D01*
X190117460Y-39510879D01*
X190105333Y-39520638D01*
X190069426Y-39534994D01*
X190019539Y-39545032D01*
X189998907Y-39546971D01*
X189952010Y-39546792D01*
X189916056Y-39536435D01*
X189877114Y-39511067D01*
X189862652Y-39499716D01*
X189818820Y-39459220D01*
X189770409Y-39406449D01*
X189735644Y-39363004D01*
X189692156Y-39311111D01*
X189650894Y-39274609D01*
X189628232Y-39262159D01*
X189574378Y-39259107D01*
X189512297Y-39283979D01*
X189442972Y-39336143D01*
X189367384Y-39414965D01*
X189340620Y-39447490D01*
X189291572Y-39506808D01*
X189250704Y-39548754D01*
X189209232Y-39580706D01*
X189158373Y-39610043D01*
X189130041Y-39624379D01*
X189024938Y-39666862D01*
X188924730Y-39689516D01*
X188832990Y-39692810D01*
X188753291Y-39677217D01*
X188689206Y-39643208D01*
X188644309Y-39591254D01*
X188630087Y-39558427D01*
X188623564Y-39517705D01*
X188621637Y-39459344D01*
X188624036Y-39395313D01*
X188630493Y-39337581D01*
X188635596Y-39313152D01*
X188642153Y-39257860D01*
X188639788Y-39184828D01*
X188629895Y-39104492D01*
X188613871Y-39027286D01*
X188593112Y-38963647D01*
X188587088Y-38950565D01*
X188547208Y-38883185D01*
X188504728Y-38831924D01*
X188464037Y-38801406D01*
X188439298Y-38794861D01*
X188414098Y-38805314D01*
X188380784Y-38830813D01*
X188348712Y-38862567D01*
X188327241Y-38891786D01*
X188323335Y-38903796D01*
X188317556Y-38923030D01*
X188303038Y-38959738D01*
X188291594Y-38986312D01*
X188270856Y-39033670D01*
X188253697Y-39073803D01*
X188248080Y-39087419D01*
X188211114Y-39172984D01*
X188176261Y-39237083D01*
X188138827Y-39287473D01*
X188107478Y-39319774D01*
X188008136Y-39396946D01*
X187905977Y-39445243D01*
X187820496Y-39462908D01*
X187788111Y-39467356D01*
X187775487Y-39470292D01*
X187745534Y-39470675D01*
X187699933Y-39462317D01*
X187650658Y-39448190D01*
X187609685Y-39431269D01*
X187602953Y-39427453D01*
X187540868Y-39382085D01*
X187503865Y-39335779D01*
X187488656Y-39291310D01*
X187476586Y-39243028D01*
X187460903Y-39200921D01*
X187460425Y-39199941D01*
X187445223Y-39159469D01*
X187432498Y-39110084D01*
X187431363Y-39104137D01*
X187412226Y-39037775D01*
X187382227Y-38976375D01*
X187346980Y-38930621D01*
X187334922Y-38920614D01*
X187286334Y-38899750D01*
X187223157Y-38889351D01*
X187159382Y-38890735D01*
X187119505Y-38900325D01*
X187044171Y-38943437D01*
X186992265Y-39004462D01*
X186963265Y-39084288D01*
X186956418Y-39177068D01*
X186961194Y-39232565D01*
X186974024Y-39282607D01*
X186997681Y-39330942D01*
X187034937Y-39381314D01*
X187088564Y-39437468D01*
X187161334Y-39503150D01*
X187256019Y-39582105D01*
X187256524Y-39582516D01*
X187299096Y-39620274D01*
X187351837Y-39671300D01*
X187405301Y-39726155D01*
X187450040Y-39775402D01*
X187452790Y-39778617D01*
X187507680Y-39851048D01*
X187540433Y-39912461D01*
X187550289Y-39960812D01*
X187536486Y-39994062D01*
X187533940Y-39996342D01*
X187518505Y-40013558D01*
X187527606Y-40028403D01*
X187536953Y-40035566D01*
X187554869Y-40051709D01*
X187549471Y-40065454D01*
X187534557Y-40077833D01*
X187504413Y-40097179D01*
X187459315Y-40121696D01*
X187430419Y-40135922D01*
X187395686Y-40151696D01*
X187362068Y-40165075D01*
X187323145Y-40178085D01*
X187272495Y-40192753D01*
X187203696Y-40211105D01*
X187140141Y-40227527D01*
X187044834Y-40257355D01*
X186974386Y-40293227D01*
X186923730Y-40339001D01*
X186887798Y-40398535D01*
X186875817Y-40428746D01*
X186858490Y-40501709D01*
X186853253Y-40579672D01*
X186861116Y-40647108D01*
X186861510Y-40648602D01*
X186883372Y-40679409D01*
X186927481Y-40708027D01*
X186986155Y-40730104D01*
X187017838Y-40737205D01*
X187067342Y-40745830D01*
X187124525Y-40755760D01*
X187137862Y-40758070D01*
X187192975Y-40772056D01*
X187247505Y-40793146D01*
X187293910Y-40817513D01*
X187324650Y-40841330D01*
X187332900Y-40857061D01*
X187345304Y-40878732D01*
X187360196Y-40886913D01*
X187386671Y-40904221D01*
X187417009Y-40935812D01*
X187422503Y-40942931D01*
X187442963Y-40977182D01*
X187453688Y-41016398D01*
X187457314Y-41071612D01*
X187457421Y-41089059D01*
X187454760Y-41163559D01*
X187447569Y-41224523D01*
X187436809Y-41266740D01*
X187423440Y-41285000D01*
X187421215Y-41285351D01*
X187408973Y-41297306D01*
X187407915Y-41304941D01*
X187402607Y-41324621D01*
X187385327Y-41353403D01*
X187354045Y-41393779D01*
X187306728Y-41448239D01*
X187241344Y-41519277D01*
X187181872Y-41582160D01*
X187079432Y-41693765D01*
X186998516Y-41790884D01*
X186939826Y-41872570D01*
X186904064Y-41937877D01*
X186893670Y-41969951D01*
X186893457Y-42015145D01*
X186904837Y-42076138D01*
X186924986Y-42145346D01*
X186951076Y-42215184D01*
X186980282Y-42278069D01*
X187009777Y-42326415D01*
X187036168Y-42352342D01*
X187073701Y-42360860D01*
X187129661Y-42360424D01*
X187194257Y-42352271D01*
X187257693Y-42337641D01*
X187310177Y-42317772D01*
X187310396Y-42317661D01*
X187351133Y-42293553D01*
X187390125Y-42261789D01*
X187431647Y-42217844D01*
X187479974Y-42157191D01*
X187539381Y-42075305D01*
X187539562Y-42075049D01*
X187581256Y-42019873D01*
X187622662Y-41971621D01*
X187657238Y-41937675D01*
X187669161Y-41928827D01*
X187716786Y-41907298D01*
X187759052Y-41901180D01*
X187787309Y-41911425D01*
X187790490Y-41915475D01*
X187811301Y-41927355D01*
X187834208Y-41930478D01*
X187866668Y-41942633D01*
X187908617Y-41975324D01*
X187954907Y-42022895D01*
X188000393Y-42079686D01*
X188039928Y-42140041D01*
X188060179Y-42178902D01*
X188098712Y-42261663D01*
X188128645Y-42321738D01*
X188153201Y-42364017D01*
X188175607Y-42393391D01*
X188199087Y-42414752D01*
X188226866Y-42432990D01*
X188228247Y-42433803D01*
X188269956Y-42455638D01*
X188303812Y-42468819D01*
X188313810Y-42470585D01*
X188335378Y-42457094D01*
X188358002Y-42421793D01*
X188377622Y-42372437D01*
X188388424Y-42328057D01*
X188397162Y-42284640D01*
X188409387Y-42231295D01*
X188413274Y-42215534D01*
X188425751Y-42162497D01*
X188436028Y-42112948D01*
X188438089Y-42101433D01*
X188457516Y-42049547D01*
X188495773Y-41991098D01*
X188545811Y-41934708D01*
X188600578Y-41888997D01*
X188623154Y-41875133D01*
X188666268Y-41854905D01*
X188707311Y-41844824D01*
X188758754Y-41842638D01*
X188795688Y-41843968D01*
X188897451Y-41859337D01*
X188985840Y-41892988D01*
X189056579Y-41942281D01*
X189105389Y-42004573D01*
X189121933Y-42045497D01*
X189133390Y-42106821D01*
X189140881Y-42189660D01*
X189144216Y-42285761D01*
X189143206Y-42386870D01*
X189137663Y-42484734D01*
X189133047Y-42530596D01*
X189123763Y-42608912D01*
X189112714Y-42702518D01*
X189101611Y-42796898D01*
X189095893Y-42845658D01*
X189073922Y-43026151D01*
X189053079Y-43179826D01*
X189032501Y-43309808D01*
X189011323Y-43419219D01*
X188988683Y-43511181D01*
X188963715Y-43588818D01*
X188935556Y-43655253D01*
X188903341Y-43713609D01*
X188866208Y-43767007D01*
X188828279Y-43812941D01*
X188764927Y-43884936D01*
X188652783Y-43889340D01*
X188588749Y-43890166D01*
X188543030Y-43885240D01*
X188504163Y-43872528D01*
X188474527Y-43857707D01*
X188394902Y-43805596D01*
X188336969Y-43745340D01*
X188297128Y-43671141D01*
X188271778Y-43577201D01*
X188262934Y-43516973D01*
X188250126Y-43438489D01*
X188230294Y-43381578D01*
X188199152Y-43337934D01*
X188152415Y-43299248D01*
X188149633Y-43297322D01*
X188085479Y-43270671D01*
X188011646Y-43269309D01*
X187934500Y-43293172D01*
X187921629Y-43299671D01*
X187890011Y-43321395D01*
X187842302Y-43360247D01*
X187783424Y-43411934D01*
X187718297Y-43472166D01*
X187666811Y-43521842D01*
X187574402Y-43610578D01*
X187497933Y-43678143D01*
X187433896Y-43726219D01*
X187378785Y-43756486D01*
X187329094Y-43770627D01*
X187281314Y-43770321D01*
X187231939Y-43757250D01*
X187201788Y-43744755D01*
X187160951Y-43727448D01*
X187131194Y-43717114D01*
X187124281Y-43715830D01*
X187101016Y-43703618D01*
X187066637Y-43670268D01*
X187024896Y-43620708D01*
X186979543Y-43559865D01*
X186934328Y-43492667D01*
X186893002Y-43424041D01*
X186871097Y-43383172D01*
X186840032Y-43320417D01*
X186814794Y-43266761D01*
X186798127Y-43228219D01*
X186792720Y-43211317D01*
X186782377Y-43188216D01*
X186771254Y-43176524D01*
X186751786Y-43148776D01*
X186740844Y-43118262D01*
X186723630Y-43079826D01*
X186690268Y-43031350D01*
X186648057Y-42981514D01*
X186604302Y-42938994D01*
X186568673Y-42913649D01*
X186509017Y-42896009D01*
X186425779Y-42891212D01*
X186322341Y-42898938D01*
X186202085Y-42918866D01*
X186068393Y-42950674D01*
X186012640Y-42966437D01*
X185950220Y-42981495D01*
X185873213Y-42995301D01*
X185792624Y-43006341D01*
X185719459Y-43013101D01*
X185665956Y-43014134D01*
X185609388Y-42999878D01*
X185552393Y-42967948D01*
X185508806Y-42926517D01*
X185502924Y-42917825D01*
X185478205Y-42850313D01*
X185473110Y-42764301D01*
X185486733Y-42663170D01*
X185518165Y-42550303D01*
X185566501Y-42429081D01*
X185630831Y-42302884D01*
X185696925Y-42194965D01*
X185748097Y-42118296D01*
X185787997Y-42060448D01*
X185821319Y-42014834D01*
X185852754Y-41974870D01*
X185860348Y-41965619D01*
X185916311Y-41894835D01*
X185974006Y-41816611D01*
X186028355Y-41738293D01*
X186074282Y-41667230D01*
X186106710Y-41610771D01*
X186109897Y-41604423D01*
X186133851Y-41543971D01*
X186141996Y-41488723D01*
X186132596Y-41436194D01*
X186103914Y-41383898D01*
X186054216Y-41329349D01*
X185981764Y-41270063D01*
X185884824Y-41203554D01*
X185787596Y-41142944D01*
X185685582Y-41078878D01*
X185591537Y-41015396D01*
X185510403Y-40956073D01*
X185447125Y-40904486D01*
X185414175Y-40872826D01*
X185385716Y-40835263D01*
X186950325Y-40835263D01*
X186954918Y-40847071D01*
X186971944Y-40850266D01*
X186996800Y-40844145D01*
X187002835Y-40835263D01*
X186990747Y-40821806D01*
X186981216Y-40820260D01*
X186955673Y-40829403D01*
X186950325Y-40835263D01*
X185385716Y-40835263D01*
X185372620Y-40817978D01*
X185353231Y-40763023D01*
X185354243Y-40699117D01*
X185367574Y-40639110D01*
X185389227Y-40595581D01*
X185432726Y-40537738D01*
X185495373Y-40468532D01*
X185574470Y-40390911D01*
X185667319Y-40307824D01*
X185682575Y-40294810D01*
X185807000Y-40183712D01*
X185905014Y-40083053D01*
X185977564Y-39990947D01*
X186025597Y-39905508D01*
X186050062Y-39824853D01*
X186051050Y-39783157D01*
X187268610Y-39783157D01*
X187274440Y-39818638D01*
X187286625Y-39875688D01*
X187295188Y-39913894D01*
X187309337Y-39947520D01*
X187333679Y-39985174D01*
X187334315Y-39985987D01*
X187371526Y-40015569D01*
X187412527Y-40021895D01*
X187448293Y-40004549D01*
X187458608Y-39991706D01*
X187465877Y-39965592D01*
X187454698Y-39931331D01*
X187446805Y-39916691D01*
X187415249Y-39869791D01*
X187376419Y-39823759D01*
X187336812Y-39785145D01*
X187302922Y-39760494D01*
X187286441Y-39755050D01*
X187274892Y-39756470D01*
X187268854Y-39764137D01*
X187268610Y-39783157D01*
X186051050Y-39783157D01*
X186051905Y-39747096D01*
X186032074Y-39670351D01*
X186015080Y-39633215D01*
X185988549Y-39583250D01*
X185963309Y-39539481D01*
X185936394Y-39498272D01*
X185904838Y-39455987D01*
X185865673Y-39408988D01*
X185815933Y-39353639D01*
X185752653Y-39286304D01*
X185672864Y-39203345D01*
X185619828Y-39148669D01*
X185553848Y-39080277D01*
X185492993Y-39016302D01*
X185441200Y-38960950D01*
X185402405Y-38918432D01*
X185380545Y-38892956D01*
X185380101Y-38892380D01*
X185353115Y-38858172D01*
X185331935Y-38833067D01*
X185329845Y-38830816D01*
X185314831Y-38807637D01*
X185295190Y-38768236D01*
X185286471Y-38748300D01*
X185266505Y-38701248D01*
X185248943Y-38661032D01*
X185244111Y-38650362D01*
X185237017Y-38602234D01*
X185250619Y-38541233D01*
X185282007Y-38473007D01*
X185328270Y-38403208D01*
X185386499Y-38337484D01*
X185421477Y-38306019D01*
X185520393Y-38223474D01*
X185598190Y-38156221D01*
X185657762Y-38101560D01*
X185702002Y-38056793D01*
X185733804Y-38019220D01*
X185743905Y-38005291D01*
X185772149Y-37962612D01*
X185794508Y-37923225D01*
X185812327Y-37882170D01*
X185826953Y-37834486D01*
X185839728Y-37775213D01*
X185851999Y-37699389D01*
X185865110Y-37602053D01*
X185875191Y-37521048D01*
X185882318Y-37473735D01*
X185893027Y-37446946D01*
X185913593Y-37431321D01*
X185942939Y-37420022D01*
X185984397Y-37408483D01*
X186011446Y-37410291D01*
X186029044Y-37419883D01*
X186052020Y-37441800D01*
X186088115Y-37483033D01*
X186133152Y-37538378D01*
X186182955Y-37602631D01*
X186233346Y-37670588D01*
X186258427Y-37705705D01*
X186294850Y-37754859D01*
X186333597Y-37803406D01*
X186344694Y-37816440D01*
X186371043Y-37849180D01*
X186386241Y-37873012D01*
X186387714Y-37877839D01*
X186397701Y-37892778D01*
X186424745Y-37923869D01*
X186464471Y-37966263D01*
X186502960Y-38005576D01*
X186560002Y-38059836D01*
X186607604Y-38096972D01*
X186646872Y-38115513D01*
X186678911Y-38113990D01*
X186704829Y-38090934D01*
X186725732Y-38044876D01*
X186742726Y-37974346D01*
X186756917Y-37877876D01*
X186769412Y-37753995D01*
X186778527Y-37639634D01*
X186790084Y-37513417D01*
X186803892Y-37416885D01*
X186820000Y-37349797D01*
X186838455Y-37311910D01*
X186844675Y-37306048D01*
X186869661Y-37298281D01*
X186908314Y-37294804D01*
X186909438Y-37294795D01*
X186949464Y-37301265D01*
X186971682Y-37324592D01*
X186973423Y-37328322D01*
X186992252Y-37364742D01*
X187017159Y-37405965D01*
X187017896Y-37407088D01*
X187040689Y-37443896D01*
X187056302Y-37472903D01*
X187057048Y-37474601D01*
X187069603Y-37501841D01*
X187092142Y-37548600D01*
X187121499Y-37608513D01*
X187154507Y-37675217D01*
X187188001Y-37742347D01*
X187218814Y-37803538D01*
X187243779Y-37852428D01*
X187259731Y-37882651D01*
X187262319Y-37887182D01*
X187281851Y-37916130D01*
X187311813Y-37956980D01*
X187330820Y-37981764D01*
X187360491Y-38018162D01*
X187379351Y-38033958D01*
X187394367Y-38032720D01*
X187408586Y-38021602D01*
X187425322Y-37997468D01*
X187448405Y-37952367D01*
X187474272Y-37893654D01*
X187490766Y-37852005D01*
X187530791Y-37749178D01*
X187564169Y-37670820D01*
X187593130Y-37612738D01*
X187619904Y-37570739D01*
X187646721Y-37540629D01*
X187663943Y-37526390D01*
X187706380Y-37502031D01*
X187750328Y-37492577D01*
X187798283Y-37499366D01*
X187852741Y-37523737D01*
X187916199Y-37567029D01*
X187991150Y-37630581D01*
X188080093Y-37715731D01*
X188150552Y-37787392D01*
X188208017Y-37845937D01*
X188261636Y-37898900D01*
X188306306Y-37941356D01*
X188336930Y-37968382D01*
X188342477Y-37972647D01*
X188391084Y-37994566D01*
X188434308Y-37987318D01*
X188471759Y-37951326D01*
X188503046Y-37887010D01*
X188527779Y-37794793D01*
X188532938Y-37767159D01*
X188552574Y-37653362D01*
X188568680Y-37559007D01*
X188582973Y-37473991D01*
X188592338Y-37417540D01*
X188606743Y-37345450D01*
X188623553Y-37297366D01*
X188645806Y-37267291D01*
X188676537Y-37249232D01*
X188677833Y-37248732D01*
X188722542Y-37246179D01*
X188769501Y-37265471D01*
G37*
G36*
X209242006Y-37169171D02*
G01*
X209368295Y-37170241D01*
X209473720Y-37172421D01*
X209561326Y-37175964D01*
X209634160Y-37181121D01*
X209695269Y-37188144D01*
X209747699Y-37197286D01*
X209794496Y-37208799D01*
X209838706Y-37222935D01*
X209883376Y-37239946D01*
X209912345Y-37251923D01*
X209979895Y-37282210D01*
X210028535Y-37309879D01*
X210067900Y-37341561D01*
X210107624Y-37383887D01*
X210112764Y-37389869D01*
X210144573Y-37430380D01*
X210163856Y-37466982D01*
X210175302Y-37511493D01*
X210182520Y-37565733D01*
X210187329Y-37623391D01*
X210186562Y-37672880D01*
X210178532Y-37721217D01*
X210161554Y-37775422D01*
X210133940Y-37842511D01*
X210096266Y-37924690D01*
X210064230Y-37985002D01*
X210021597Y-38054833D01*
X209976793Y-38120498D01*
X209970172Y-38129455D01*
X209904955Y-38213191D01*
X209824627Y-38311178D01*
X209735264Y-38416415D01*
X209642943Y-38521905D01*
X209553739Y-38620649D01*
X209473728Y-38705647D01*
X209441990Y-38737897D01*
X209405169Y-38774342D01*
X209350214Y-38828373D01*
X209280014Y-38897173D01*
X209197461Y-38977926D01*
X209105445Y-39067815D01*
X209006857Y-39164024D01*
X208904587Y-39263736D01*
X208801527Y-39364135D01*
X208700568Y-39462405D01*
X208604599Y-39555728D01*
X208516512Y-39641289D01*
X208439197Y-39716271D01*
X208375546Y-39777857D01*
X208328449Y-39823231D01*
X208307029Y-39843697D01*
X208274189Y-39875119D01*
X208224820Y-39922708D01*
X208163869Y-39981679D01*
X208096286Y-40047243D01*
X208036693Y-40105193D01*
X207973186Y-40166872D01*
X207892838Y-40244669D01*
X207800467Y-40333935D01*
X207700890Y-40430019D01*
X207598922Y-40528272D01*
X207499381Y-40624043D01*
X207474739Y-40647726D01*
X207371203Y-40747191D01*
X207286027Y-40829065D01*
X207215966Y-40896582D01*
X207157776Y-40952977D01*
X207108216Y-41001484D01*
X207064042Y-41045338D01*
X207022010Y-41087774D01*
X206978877Y-41132025D01*
X206931401Y-41181328D01*
X206876338Y-41238915D01*
X206810444Y-41308023D01*
X206767231Y-41353351D01*
X206691081Y-41433207D01*
X206617099Y-41510782D01*
X206549325Y-41581841D01*
X206491799Y-41642148D01*
X206448561Y-41687468D01*
X206431414Y-41705434D01*
X206357146Y-41786368D01*
X206276431Y-41879580D01*
X206196091Y-41976802D01*
X206122952Y-42069768D01*
X206063834Y-42150209D01*
X206061230Y-42153955D01*
X206017738Y-42222812D01*
X205975019Y-42301036D01*
X205936736Y-42380798D01*
X205906551Y-42454273D01*
X205888126Y-42513631D01*
X205885004Y-42530596D01*
X205888028Y-42604686D01*
X205917628Y-42665494D01*
X205973269Y-42712595D01*
X206054415Y-42745565D01*
X206160531Y-42763979D01*
X206181328Y-42765653D01*
X206247184Y-42766656D01*
X206335846Y-42762985D01*
X206440604Y-42755354D01*
X206554747Y-42744475D01*
X206671561Y-42731063D01*
X206784337Y-42715831D01*
X206886363Y-42699492D01*
X206970926Y-42682760D01*
X206979267Y-42680833D01*
X207051006Y-42666013D01*
X207137390Y-42651173D01*
X207223168Y-42638862D01*
X207249321Y-42635723D01*
X207328664Y-42624978D01*
X207411083Y-42610846D01*
X207482734Y-42595792D01*
X207504371Y-42590312D01*
X207562510Y-42577543D01*
X207644207Y-42563757D01*
X207743064Y-42549673D01*
X207852684Y-42536013D01*
X207966670Y-42523497D01*
X208078624Y-42512845D01*
X208182148Y-42504778D01*
X208270846Y-42500016D01*
X208314880Y-42499042D01*
X208434133Y-42500484D01*
X208530618Y-42506841D01*
X208611358Y-42519410D01*
X208683373Y-42539494D01*
X208753683Y-42568391D01*
X208792039Y-42587404D01*
X208903924Y-42658214D01*
X208992450Y-42741291D01*
X209056147Y-42834194D01*
X209093542Y-42934484D01*
X209103164Y-43039720D01*
X209097140Y-43093207D01*
X209064871Y-43212688D01*
X209012816Y-43313754D01*
X208937196Y-43402492D01*
X208869822Y-43459325D01*
X208819620Y-43494271D01*
X208760090Y-43531300D01*
X208698058Y-43566687D01*
X208640354Y-43596706D01*
X208593805Y-43617629D01*
X208565242Y-43625733D01*
X208564843Y-43625739D01*
X208537068Y-43632773D01*
X208512333Y-43644310D01*
X208476632Y-43658415D01*
X208417327Y-43675198D01*
X208340559Y-43693368D01*
X208252466Y-43711634D01*
X208159188Y-43728707D01*
X208066864Y-43743296D01*
X207999468Y-43752120D01*
X207880719Y-43762254D01*
X207736576Y-43768354D01*
X207571375Y-43770447D01*
X207389452Y-43768564D01*
X207195141Y-43762732D01*
X206992780Y-43752980D01*
X206859244Y-43744571D01*
X206751194Y-43736970D01*
X206650511Y-43729589D01*
X206561856Y-43722794D01*
X206489892Y-43716950D01*
X206439281Y-43712422D01*
X206416657Y-43709900D01*
X206380072Y-43704502D01*
X206322567Y-43696060D01*
X206252915Y-43685860D01*
X206199114Y-43677996D01*
X206121683Y-43666519D01*
X206045646Y-43654963D01*
X205981679Y-43644961D01*
X205951565Y-43640059D01*
X205901160Y-43632109D01*
X205831705Y-43621810D01*
X205753904Y-43610730D01*
X205704016Y-43603861D01*
X205613706Y-43591358D01*
X205512452Y-43576930D01*
X205416968Y-43562972D01*
X205381453Y-43557651D01*
X205304005Y-43545928D01*
X205226430Y-43534185D01*
X205160468Y-43524199D01*
X205133904Y-43520177D01*
X205077918Y-43511811D01*
X205004634Y-43501014D01*
X204926459Y-43489609D01*
X204893857Y-43484889D01*
X204810168Y-43472726D01*
X204712756Y-43458444D01*
X204617572Y-43444385D01*
X204578795Y-43438618D01*
X204501111Y-43427439D01*
X204424493Y-43417108D01*
X204359731Y-43409047D01*
X204329136Y-43405702D01*
X204278269Y-43398664D01*
X204248725Y-43387630D01*
X204231824Y-43368756D01*
X204227866Y-43360870D01*
X204217516Y-43337849D01*
X204211826Y-43318666D01*
X204213068Y-43299642D01*
X204223513Y-43277096D01*
X204245432Y-43247348D01*
X204281098Y-43206717D01*
X204332782Y-43151524D01*
X204401807Y-43079084D01*
X204454452Y-43024077D01*
X204521994Y-42953820D01*
X204598405Y-42874564D01*
X204677656Y-42792565D01*
X204750127Y-42717777D01*
X204827047Y-42638346D01*
X204907367Y-42555111D01*
X204984899Y-42474503D01*
X205053457Y-42402954D01*
X205103898Y-42350012D01*
X205221254Y-42226327D01*
X205321529Y-42120768D01*
X205408246Y-42029649D01*
X205484931Y-41949284D01*
X205555107Y-41875986D01*
X205622299Y-41806069D01*
X205690030Y-41735848D01*
X205761826Y-41661636D01*
X205778139Y-41644796D01*
X205860355Y-41559629D01*
X205955586Y-41460461D01*
X206056304Y-41355163D01*
X206154984Y-41251606D01*
X206244098Y-41157660D01*
X206251624Y-41149699D01*
X206333664Y-41063010D01*
X206420487Y-40971465D01*
X206506138Y-40881331D01*
X206584661Y-40798873D01*
X206650101Y-40730357D01*
X206664205Y-40715634D01*
X206733610Y-40643180D01*
X206807901Y-40565523D01*
X206879143Y-40490965D01*
X206939399Y-40427809D01*
X206951054Y-40415574D01*
X207003454Y-40360690D01*
X207070145Y-40291047D01*
X207144577Y-40213474D01*
X207220200Y-40134800D01*
X207268038Y-40085115D01*
X207334169Y-40016369D01*
X207397139Y-39950700D01*
X207452370Y-39892893D01*
X207495288Y-39847738D01*
X207518963Y-39822563D01*
X207547507Y-39792153D01*
X207595167Y-39741766D01*
X207660315Y-39673111D01*
X207741326Y-39587897D01*
X207836576Y-39487831D01*
X207944438Y-39374622D01*
X208063287Y-39249977D01*
X208191497Y-39115606D01*
X208254208Y-39049911D01*
X208308180Y-38993646D01*
X208378669Y-38920564D01*
X208461199Y-38835285D01*
X208551291Y-38742428D01*
X208644469Y-38646613D01*
X208736254Y-38552461D01*
X208749306Y-38539094D01*
X208869558Y-38415539D01*
X208969770Y-38311562D01*
X209051265Y-38225673D01*
X209115366Y-38156379D01*
X209163396Y-38102189D01*
X209196678Y-38061610D01*
X209216535Y-38033151D01*
X209224290Y-38015321D01*
X209221444Y-38006733D01*
X209218297Y-38004683D01*
X209214660Y-38002959D01*
X209208753Y-38001721D01*
X209198798Y-38001128D01*
X209183014Y-38001338D01*
X209159623Y-38002511D01*
X209126844Y-38004807D01*
X209082899Y-38008383D01*
X209026008Y-38013400D01*
X208954391Y-38020017D01*
X208866269Y-38028392D01*
X208759863Y-38038685D01*
X208633393Y-38051055D01*
X208485079Y-38065661D01*
X208313143Y-38082663D01*
X208115805Y-38102219D01*
X207891285Y-38124489D01*
X207766922Y-38136825D01*
X207577503Y-38155446D01*
X207395157Y-38173047D01*
X207222315Y-38189413D01*
X207061409Y-38204328D01*
X206914868Y-38217577D01*
X206785124Y-38228945D01*
X206674607Y-38238217D01*
X206585748Y-38245177D01*
X206520977Y-38249609D01*
X206482726Y-38251300D01*
X206475766Y-38251186D01*
X206377290Y-38230580D01*
X206282091Y-38184450D01*
X206196213Y-38117149D01*
X206125701Y-38033031D01*
X206092815Y-37975320D01*
X206061654Y-37876791D01*
X206055032Y-37769916D01*
X206071692Y-37661679D01*
X206110376Y-37559060D01*
X206169828Y-37469042D01*
X206187452Y-37449671D01*
X206221278Y-37419576D01*
X206250240Y-37401714D01*
X206258861Y-37399586D01*
X206279000Y-37391884D01*
X206281630Y-37385186D01*
X206295836Y-37370421D01*
X206335516Y-37353945D01*
X206396261Y-37336780D01*
X206473663Y-37319946D01*
X206563316Y-37304463D01*
X206660810Y-37291353D01*
X206709214Y-37286191D01*
X206799638Y-37278199D01*
X206910030Y-37269691D01*
X207030377Y-37261366D01*
X207150667Y-37253923D01*
X207241819Y-37248990D01*
X207355088Y-37242676D01*
X207487579Y-37234200D01*
X207628649Y-37224308D01*
X207767656Y-37213751D01*
X207893957Y-37203275D01*
X207901949Y-37202573D01*
X208003077Y-37194186D01*
X208101088Y-37187316D01*
X208200606Y-37181811D01*
X208306249Y-37177520D01*
X208422640Y-37174291D01*
X208554399Y-37171974D01*
X208706149Y-37170415D01*
X208882509Y-37169463D01*
X208914648Y-37169353D01*
X209091806Y-37168959D01*
X209242006Y-37169171D01*
G37*
G36*
X195682399Y-36733466D02*
G01*
X195774338Y-36760111D01*
X195847893Y-36809295D01*
X195901478Y-36879737D01*
X195933506Y-36970156D01*
X195941320Y-37027401D01*
X195938840Y-37132563D01*
X195913765Y-37219295D01*
X195864413Y-37290685D01*
X195789102Y-37349822D01*
X195755410Y-37368655D01*
X195684307Y-37391264D01*
X195601156Y-37396294D01*
X195518138Y-37383864D01*
X195468696Y-37365847D01*
X195429896Y-37341351D01*
X195389251Y-37306963D01*
X195354458Y-37270323D01*
X195333211Y-37239072D01*
X195330084Y-37228234D01*
X195320493Y-37206801D01*
X195308195Y-37190726D01*
X195294434Y-37160051D01*
X195285508Y-37110800D01*
X195282353Y-37054151D01*
X195285900Y-37001278D01*
X195290550Y-36979504D01*
X195328886Y-36881885D01*
X195380379Y-36810149D01*
X195447469Y-36762152D01*
X195532592Y-36735751D01*
X195573661Y-36730639D01*
X195682399Y-36733466D01*
G37*
G36*
X219410562Y-32528979D02*
G01*
X219722841Y-32551136D01*
X220027508Y-32585740D01*
X220305284Y-32631767D01*
X220339099Y-32638680D01*
X220726760Y-32727799D01*
X221104032Y-32831667D01*
X221485086Y-32955204D01*
X221884098Y-33103331D01*
X222315240Y-33280967D01*
X222768354Y-33481928D01*
X223211880Y-33674888D01*
X223615737Y-33829227D01*
X223997092Y-33949623D01*
X224373112Y-34040753D01*
X224760962Y-34107292D01*
X225177810Y-34153918D01*
X225260126Y-34160786D01*
X225882953Y-34178592D01*
X226532621Y-34136842D01*
X227199492Y-34037411D01*
X227873929Y-33882180D01*
X228546295Y-33673024D01*
X229206954Y-33411823D01*
X229287141Y-33376099D01*
X229471641Y-33290082D01*
X229663234Y-33196167D01*
X229834441Y-33108026D01*
X229921303Y-33060577D01*
X230040908Y-32996436D01*
X230135811Y-32952330D01*
X230190166Y-32935389D01*
X230196365Y-32936825D01*
X230187162Y-32973434D01*
X230149173Y-33062808D01*
X230087226Y-33194666D01*
X230006147Y-33358725D01*
X229913214Y-33540003D01*
X229816694Y-33727121D01*
X229732833Y-33893335D01*
X229666869Y-34027962D01*
X229624044Y-34120315D01*
X229609563Y-34159231D01*
X229644806Y-34173380D01*
X229748747Y-34184204D01*
X229918707Y-34191561D01*
X230152008Y-34195307D01*
X230291303Y-34195780D01*
X230542936Y-34197550D01*
X230739604Y-34202703D01*
X230876786Y-34211003D01*
X230949961Y-34222214D01*
X230961134Y-34230753D01*
X230928639Y-34269407D01*
X230849077Y-34345086D01*
X230731297Y-34450333D01*
X230584150Y-34577695D01*
X230416484Y-34719717D01*
X230237147Y-34868945D01*
X230054991Y-35017923D01*
X229878863Y-35159198D01*
X229717612Y-35285314D01*
X229632582Y-35349934D01*
X229001676Y-35801740D01*
X228393443Y-36195003D01*
X227809687Y-36528795D01*
X227252216Y-36802191D01*
X226722837Y-37014263D01*
X226223355Y-37164085D01*
X226002245Y-37212202D01*
X225809953Y-37238410D01*
X225563011Y-37256388D01*
X225277763Y-37265952D01*
X224970554Y-37266916D01*
X224657728Y-37259095D01*
X224355629Y-37242303D01*
X224233051Y-37232274D01*
X223828109Y-37190405D01*
X223439495Y-37138951D01*
X223054918Y-37075314D01*
X222662084Y-36996895D01*
X222248703Y-36901096D01*
X221802481Y-36785319D01*
X221311127Y-36646965D01*
X220928551Y-36533731D01*
X220381291Y-36371234D01*
X219894554Y-36231608D01*
X219461669Y-36113435D01*
X219329628Y-36079840D01*
X222579277Y-36079840D01*
X222582098Y-36174321D01*
X222626098Y-36219395D01*
X222718573Y-36219765D01*
X222826847Y-36168225D01*
X222936768Y-36077733D01*
X223034182Y-35961247D01*
X223104936Y-35831723D01*
X223127123Y-35760706D01*
X223161911Y-35679548D01*
X223213705Y-35629569D01*
X223263750Y-35627376D01*
X223271051Y-35633264D01*
X223284740Y-35673565D01*
X223307751Y-35768303D01*
X223336420Y-35901655D01*
X223356761Y-36003641D01*
X223395744Y-36185103D01*
X223432413Y-36308110D01*
X223471212Y-36385334D01*
X223502601Y-36419409D01*
X223582802Y-36471961D01*
X223651147Y-36474506D01*
X223714493Y-36446710D01*
X223769883Y-36387700D01*
X223803937Y-36305437D01*
X223806790Y-36199729D01*
X223784797Y-36049727D01*
X223742634Y-35876201D01*
X223684972Y-35699923D01*
X223683448Y-35696169D01*
X224790902Y-35696169D01*
X224792494Y-35747686D01*
X224822495Y-36025145D01*
X224888843Y-36244685D01*
X224990508Y-36404947D01*
X225126460Y-36504575D01*
X225295669Y-36542211D01*
X225391772Y-36537440D01*
X225510491Y-36512553D01*
X225611913Y-36475102D01*
X225632911Y-36463229D01*
X225695740Y-36395516D01*
X225715534Y-36290824D01*
X225715611Y-36281323D01*
X225715611Y-36153603D01*
X225509148Y-36177566D01*
X225385708Y-36187957D01*
X225310094Y-36180841D01*
X225260062Y-36152678D01*
X225242578Y-36135111D01*
X225157671Y-36002775D01*
X225100111Y-35836003D01*
X225072308Y-35656011D01*
X225076674Y-35484020D01*
X225115617Y-35341247D01*
X225146615Y-35290190D01*
X225225505Y-35220883D01*
X225306663Y-35196294D01*
X225368896Y-35221816D01*
X225376230Y-35231786D01*
X225425474Y-35259440D01*
X225485511Y-35267510D01*
X225547604Y-35255779D01*
X225570554Y-35206315D01*
X225572714Y-35158713D01*
X225540629Y-35030714D01*
X225528486Y-35017358D01*
X225861776Y-35017358D01*
X225865441Y-35167477D01*
X225881636Y-35370425D01*
X225909986Y-35633304D01*
X225928124Y-35785513D01*
X225953384Y-35994892D01*
X225972947Y-36143784D01*
X225991206Y-36242433D01*
X226012556Y-36301084D01*
X226041393Y-36329980D01*
X226082111Y-36339368D01*
X226139104Y-36339492D01*
X226165663Y-36339240D01*
X226286504Y-36330888D01*
X226440397Y-36309139D01*
X226574288Y-36282924D01*
X226768470Y-36227095D01*
X226895979Y-36163577D01*
X226955142Y-36093459D01*
X226953258Y-36036142D01*
X226931428Y-36001726D01*
X226888586Y-35986716D01*
X226806904Y-35988476D01*
X226706162Y-35999622D01*
X226568029Y-36015304D01*
X226442523Y-36027077D01*
X226376511Y-36031421D01*
X226269338Y-36035583D01*
X226229390Y-35624754D01*
X226199310Y-35349088D01*
X226168025Y-35138038D01*
X226133461Y-34984775D01*
X226093545Y-34882471D01*
X226046203Y-34824298D01*
X226024895Y-34816475D01*
X226787341Y-34816475D01*
X226797601Y-34898030D01*
X226824876Y-35028006D01*
X226863911Y-35186934D01*
X226909451Y-35355346D01*
X226956239Y-35513772D01*
X226999021Y-35642745D01*
X227031469Y-35720823D01*
X227105251Y-35818165D01*
X227217913Y-35891965D01*
X227313937Y-35931721D01*
X227484227Y-35963109D01*
X227642079Y-35925829D01*
X227705470Y-35890605D01*
X227784914Y-35798738D01*
X227835202Y-35650483D01*
X227855308Y-35455128D01*
X227844208Y-35221963D01*
X227805684Y-34982662D01*
X227755456Y-34777682D01*
X227702913Y-34636894D01*
X227644130Y-34553057D01*
X227575181Y-34518932D01*
X227553376Y-34517299D01*
X227480733Y-34533398D01*
X227442976Y-34587783D01*
X227437659Y-34689590D01*
X227462341Y-34847954D01*
X227463459Y-34853383D01*
X227499355Y-35056807D01*
X227522450Y-35251050D01*
X227532029Y-35421644D01*
X227527373Y-35554122D01*
X227507765Y-35634015D01*
X227502545Y-35641752D01*
X227429266Y-35697988D01*
X227359524Y-35685004D01*
X227292769Y-35602206D01*
X227228450Y-35448996D01*
X227183707Y-35296169D01*
X227142339Y-35136595D01*
X227102464Y-34982800D01*
X227071549Y-34863575D01*
X227067070Y-34846305D01*
X227016986Y-34726337D01*
X226950784Y-34656667D01*
X226881996Y-34638739D01*
X226824156Y-34673995D01*
X226790799Y-34763880D01*
X226787341Y-34816475D01*
X226024895Y-34816475D01*
X225989362Y-34803429D01*
X225979890Y-34803094D01*
X225929697Y-34812934D01*
X225893529Y-34847189D01*
X225871014Y-34912963D01*
X225861776Y-35017358D01*
X225528486Y-35017358D01*
X225453086Y-34934423D01*
X225323151Y-34881321D01*
X225249246Y-34874543D01*
X225138368Y-34886448D01*
X225049714Y-34932623D01*
X224982891Y-34992805D01*
X224889303Y-35113721D01*
X224828192Y-35262995D01*
X224796434Y-35453014D01*
X224790902Y-35696169D01*
X223683448Y-35696169D01*
X223646239Y-35604538D01*
X223606714Y-35510419D01*
X223597018Y-35456626D01*
X223617805Y-35418267D01*
X223651965Y-35386270D01*
X223749822Y-35287193D01*
X223846321Y-35169349D01*
X223928715Y-35050822D01*
X223984260Y-34949693D01*
X224000843Y-34891305D01*
X223980327Y-34801517D01*
X223920658Y-34768856D01*
X223824656Y-34792628D01*
X223695141Y-34872139D01*
X223536067Y-35005644D01*
X223430569Y-35102022D01*
X223367953Y-35153656D01*
X223339359Y-35165068D01*
X223335923Y-35140783D01*
X223344073Y-35103653D01*
X223358348Y-35012749D01*
X223368919Y-34881548D01*
X223373011Y-34762393D01*
X223358841Y-34575415D01*
X223312791Y-34455296D01*
X227930925Y-34455296D01*
X227940664Y-34514231D01*
X227966707Y-34625603D01*
X228004712Y-34773814D01*
X228050340Y-34943268D01*
X228099247Y-35118368D01*
X228147094Y-35283518D01*
X228189538Y-35423122D01*
X228222239Y-35521583D01*
X228238501Y-35560302D01*
X228288548Y-35579385D01*
X228383917Y-35570911D01*
X228505738Y-35538693D01*
X228635139Y-35486548D01*
X228657073Y-35475700D01*
X228823563Y-35372036D01*
X228924317Y-35261853D01*
X228965047Y-35138340D01*
X228966525Y-35106601D01*
X228940642Y-34948903D01*
X228871688Y-34807844D01*
X228788855Y-34722043D01*
X228741897Y-34673909D01*
X228738278Y-34608368D01*
X228749988Y-34560666D01*
X228768209Y-34404298D01*
X228730206Y-34279011D01*
X228642117Y-34194467D01*
X228510076Y-34160327D01*
X228495554Y-34160056D01*
X228375358Y-34176653D01*
X228242047Y-34220188D01*
X228113568Y-34281276D01*
X228007868Y-34350532D01*
X227942894Y-34418573D01*
X227930925Y-34455296D01*
X223312791Y-34455296D01*
X223310847Y-34450225D01*
X223228144Y-34385206D01*
X223160159Y-34374402D01*
X223093072Y-34386238D01*
X223044215Y-34428727D01*
X223008969Y-34512335D01*
X222982717Y-34647534D01*
X222963028Y-34821296D01*
X222937578Y-35051174D01*
X222906316Y-35233715D01*
X222862628Y-35393026D01*
X222799900Y-35553214D01*
X222711520Y-35738386D01*
X222711343Y-35738738D01*
X222622234Y-35935348D01*
X222579277Y-36079840D01*
X219329628Y-36079840D01*
X219075965Y-36015301D01*
X218730770Y-35935786D01*
X218419415Y-35873475D01*
X218135227Y-35826951D01*
X217871536Y-35794797D01*
X217621671Y-35775596D01*
X217378960Y-35767931D01*
X217321505Y-35767651D01*
X216831431Y-35767651D01*
X216718669Y-36055730D01*
X216667666Y-36189323D01*
X216628678Y-36297712D01*
X216607813Y-36363655D01*
X216605907Y-36374062D01*
X216635309Y-36405570D01*
X216710471Y-36452907D01*
X216769023Y-36483279D01*
X216943515Y-36604053D01*
X217063060Y-36770112D01*
X217126649Y-36979883D01*
X217134815Y-37053172D01*
X217136003Y-37192943D01*
X217122702Y-37324843D01*
X217108610Y-37385342D01*
X217040052Y-37518897D01*
X216934500Y-37644024D01*
X216812371Y-37740609D01*
X216700402Y-37787460D01*
X216580912Y-37809877D01*
X216649271Y-37940873D01*
X216701899Y-38107673D01*
X216711111Y-38302494D01*
X216678942Y-38498230D01*
X216607428Y-38667773D01*
X216593029Y-38689853D01*
X216506223Y-38790542D01*
X216406978Y-38871988D01*
X216372177Y-38891858D01*
X216251692Y-38949032D01*
X216342310Y-39117765D01*
X216411581Y-39310099D01*
X216427198Y-39513687D01*
X216393280Y-39712886D01*
X216313943Y-39892055D01*
X216193306Y-40035550D01*
X216081394Y-40108852D01*
X215918131Y-40149895D01*
X215755160Y-40121212D01*
X215599961Y-40024162D01*
X215595926Y-40020587D01*
X215518012Y-39935386D01*
X215486271Y-39845453D01*
X215482214Y-39772432D01*
X215481130Y-39681554D01*
X215478416Y-39630166D01*
X215477218Y-39625879D01*
X215456476Y-39652599D01*
X215409783Y-39720173D01*
X215383193Y-39759845D01*
X215189440Y-40009333D01*
X214963427Y-40230781D01*
X214726341Y-40403609D01*
X214711227Y-40412567D01*
X214593153Y-40476929D01*
X214487120Y-40520053D01*
X214376186Y-40544316D01*
X214243406Y-40552097D01*
X214071837Y-40545774D01*
X213872995Y-40530231D01*
X213397707Y-40474446D01*
X212928242Y-40392074D01*
X212475981Y-40286390D01*
X212052305Y-40160666D01*
X211668595Y-40018178D01*
X211336230Y-39862200D01*
X211132932Y-39741941D01*
X211046512Y-39676147D01*
X211007046Y-39612471D01*
X210997213Y-39521830D01*
X210997187Y-39514018D01*
X210997187Y-39375927D01*
X211171804Y-39501378D01*
X211410842Y-39648078D01*
X211707826Y-39789996D01*
X212049257Y-39922912D01*
X212421634Y-40042603D01*
X212811459Y-40144847D01*
X213205231Y-40225422D01*
X213589451Y-40280107D01*
X213694374Y-40290281D01*
X213834981Y-40301682D01*
X213915757Y-40304411D01*
X213948026Y-40296253D01*
X213943110Y-40274991D01*
X213919319Y-40246271D01*
X213837780Y-40124117D01*
X213758897Y-39952800D01*
X213691200Y-39754361D01*
X213643216Y-39550845D01*
X213637847Y-39518706D01*
X213612603Y-39217041D01*
X213615503Y-39090014D01*
X213820644Y-39090014D01*
X213838005Y-39393364D01*
X213888202Y-39667773D01*
X213967846Y-39903621D01*
X214073550Y-40091288D01*
X214201927Y-40221154D01*
X214224125Y-40235791D01*
X214357715Y-40284338D01*
X214503211Y-40269097D01*
X214658931Y-40195717D01*
X214752700Y-40126667D01*
X214860706Y-40029257D01*
X214971952Y-39915962D01*
X215075439Y-39799257D01*
X215160172Y-39691620D01*
X215215151Y-39605525D01*
X215229381Y-39553448D01*
X215227925Y-39550231D01*
X215181583Y-39527361D01*
X215105702Y-39518706D01*
X214975388Y-39503413D01*
X214875419Y-39463018D01*
X214823361Y-39405743D01*
X214819690Y-39384832D01*
X214846593Y-39306842D01*
X214852905Y-39297750D01*
X215087623Y-39297750D01*
X215194796Y-39320933D01*
X215404528Y-39370699D01*
X215552033Y-39418587D01*
X215646090Y-39470675D01*
X215695475Y-39533041D01*
X215708967Y-39611764D01*
X215702939Y-39672792D01*
X215696078Y-39781227D01*
X215727758Y-39850822D01*
X215802109Y-39904709D01*
X215889865Y-39941670D01*
X215963768Y-39929837D01*
X216026572Y-39891643D01*
X216131098Y-39778041D01*
X216194184Y-39625336D01*
X216212166Y-39455073D01*
X216181376Y-39288798D01*
X216142937Y-39207852D01*
X216030538Y-39083491D01*
X215883061Y-39004194D01*
X215756661Y-38982841D01*
X215598253Y-39006267D01*
X215422617Y-39068077D01*
X215262471Y-39155566D01*
X215209740Y-39195191D01*
X215087623Y-39297750D01*
X214852905Y-39297750D01*
X214918146Y-39203778D01*
X215020613Y-39091749D01*
X215140258Y-38986865D01*
X215190212Y-38950270D01*
X215283830Y-38873970D01*
X215354253Y-38781774D01*
X215375761Y-38737623D01*
X215653574Y-38737623D01*
X215669094Y-38768425D01*
X215670844Y-38768495D01*
X215711075Y-38739751D01*
X215729938Y-38705977D01*
X215751050Y-38627694D01*
X215768237Y-38523728D01*
X215768851Y-38518425D01*
X215782981Y-38393389D01*
X215734538Y-38502869D01*
X215675255Y-38649662D01*
X215653574Y-38737623D01*
X215375761Y-38737623D01*
X215418518Y-38649854D01*
X215436426Y-38605841D01*
X215480733Y-38484123D01*
X215508378Y-38387982D01*
X215513955Y-38336538D01*
X215513090Y-38334585D01*
X215467249Y-38312465D01*
X215391497Y-38304079D01*
X215252268Y-38287515D01*
X215152855Y-38242453D01*
X215107016Y-38175836D01*
X215105485Y-38159736D01*
X215133422Y-38083123D01*
X215373417Y-38083123D01*
X215480590Y-38106306D01*
X215690322Y-38156071D01*
X215837828Y-38203959D01*
X215931885Y-38256048D01*
X215981270Y-38318414D01*
X215994761Y-38397137D01*
X215988734Y-38458165D01*
X215981873Y-38566600D01*
X216013552Y-38636195D01*
X216087904Y-38690082D01*
X216175659Y-38727042D01*
X216249562Y-38715209D01*
X216312367Y-38677015D01*
X216416892Y-38563414D01*
X216479979Y-38410709D01*
X216497960Y-38240446D01*
X216467170Y-38074170D01*
X216428731Y-37993225D01*
X216316333Y-37868863D01*
X216168856Y-37789567D01*
X216042455Y-37768214D01*
X215884048Y-37791640D01*
X215708411Y-37853450D01*
X215548266Y-37940938D01*
X215495535Y-37980564D01*
X215373417Y-38083123D01*
X215133422Y-38083123D01*
X215134014Y-38081500D01*
X215209593Y-37981661D01*
X215317207Y-37874012D01*
X215441842Y-37772350D01*
X215568482Y-37690466D01*
X215662450Y-37648036D01*
X215769995Y-37606711D01*
X215836709Y-37557788D01*
X215847234Y-37541083D01*
X216133203Y-37541083D01*
X216152307Y-37560915D01*
X216190579Y-37557064D01*
X216212037Y-37513778D01*
X216203568Y-37462974D01*
X216196292Y-37453864D01*
X216161684Y-37458808D01*
X216141434Y-37482511D01*
X216133203Y-37541083D01*
X215847234Y-37541083D01*
X215886787Y-37478305D01*
X215920156Y-37403454D01*
X215964194Y-37281072D01*
X215965445Y-37207742D01*
X215918753Y-37171777D01*
X215818962Y-37161492D01*
X215813366Y-37161447D01*
X215677391Y-37143840D01*
X215579865Y-37097793D01*
X215535415Y-37030898D01*
X215534177Y-37016557D01*
X215559105Y-36953558D01*
X215568856Y-36939944D01*
X215802109Y-36939944D01*
X215909282Y-36963127D01*
X216119014Y-37012893D01*
X216266520Y-37060781D01*
X216360577Y-37112869D01*
X216409962Y-37175235D01*
X216423453Y-37253958D01*
X216417426Y-37314986D01*
X216410565Y-37423421D01*
X216442244Y-37493016D01*
X216516596Y-37546903D01*
X216604351Y-37583864D01*
X216678254Y-37572031D01*
X216741059Y-37533837D01*
X216845584Y-37420235D01*
X216908671Y-37267530D01*
X216926652Y-37097268D01*
X216895862Y-36930992D01*
X216857423Y-36850046D01*
X216745025Y-36725685D01*
X216597548Y-36646388D01*
X216471147Y-36625035D01*
X216312740Y-36648461D01*
X216137103Y-36710271D01*
X215976958Y-36797760D01*
X215924227Y-36837385D01*
X215802109Y-36939944D01*
X215568856Y-36939944D01*
X215625889Y-36860319D01*
X215722526Y-36753549D01*
X215724592Y-36751479D01*
X215866381Y-36624849D01*
X216001124Y-36542222D01*
X216118599Y-36496887D01*
X216257491Y-36440227D01*
X216333610Y-36370845D01*
X216355629Y-36275876D01*
X216339318Y-36169550D01*
X216282301Y-36028948D01*
X216186258Y-35875791D01*
X216071065Y-35737968D01*
X215970622Y-35652165D01*
X215736732Y-35534357D01*
X215503286Y-35486589D01*
X215276644Y-35507695D01*
X215063165Y-35596513D01*
X214869207Y-35751877D01*
X214767911Y-35872362D01*
X214611584Y-36119581D01*
X214458939Y-36425021D01*
X214313870Y-36775451D01*
X214180273Y-37157645D01*
X214062042Y-37558373D01*
X213963070Y-37964407D01*
X213887253Y-38362518D01*
X213838485Y-38739478D01*
X213820660Y-39082059D01*
X213820644Y-39090014D01*
X213615503Y-39090014D01*
X213620636Y-38865177D01*
X213659807Y-38474969D01*
X213727979Y-38058269D01*
X213823011Y-37626932D01*
X213942766Y-37192813D01*
X214085104Y-36767766D01*
X214176920Y-36530669D01*
X214300871Y-36246447D01*
X214420835Y-36015831D01*
X214546814Y-35822363D01*
X214688809Y-35649583D01*
X214754103Y-35580774D01*
X214844753Y-35484371D01*
X214908156Y-35408580D01*
X214933980Y-35366078D01*
X214932725Y-35361636D01*
X214890789Y-35346277D01*
X214795479Y-35315057D01*
X214661804Y-35272806D01*
X214533895Y-35233258D01*
X214058029Y-35073566D01*
X213551723Y-34878623D01*
X213034722Y-34657339D01*
X212526770Y-34418626D01*
X212047612Y-34171396D01*
X211616991Y-33924562D01*
X211568776Y-33894933D01*
X211365984Y-33768033D01*
X211216896Y-33670453D01*
X211113717Y-33595144D01*
X211048649Y-33535062D01*
X211013895Y-33483160D01*
X211001658Y-33432391D01*
X211003241Y-33383839D01*
X211015049Y-33269956D01*
X211472250Y-33568975D01*
X211784359Y-33762390D01*
X212142993Y-33966695D01*
X212526730Y-34170693D01*
X212914143Y-34363192D01*
X213283809Y-34532996D01*
X213462165Y-34608714D01*
X213787414Y-34737111D01*
X214123762Y-34860702D01*
X214458637Y-34975504D01*
X214779464Y-35077527D01*
X215073669Y-35162788D01*
X215328677Y-35227298D01*
X215531915Y-35267072D01*
X215544729Y-35268948D01*
X215836249Y-35340757D01*
X216082947Y-35467712D01*
X216287097Y-35651227D01*
X216396456Y-35798986D01*
X216455271Y-35888965D01*
X216489095Y-35925186D01*
X216510701Y-35914549D01*
X216530049Y-35871137D01*
X216661266Y-35538541D01*
X216797508Y-35197657D01*
X216935977Y-34855145D01*
X216951393Y-34817416D01*
X218295631Y-34817416D01*
X218306781Y-34947757D01*
X218357044Y-35025718D01*
X218365725Y-35031684D01*
X218449453Y-35045243D01*
X218552969Y-35006788D01*
X218660499Y-34926278D01*
X218756273Y-34813669D01*
X218784952Y-34766983D01*
X218861345Y-34627965D01*
X218913637Y-34540743D01*
X218955903Y-34496715D01*
X219002217Y-34487281D01*
X219066651Y-34503840D01*
X219161158Y-34537073D01*
X219272803Y-34580974D01*
X219353847Y-34623973D01*
X219382759Y-34650876D01*
X219383571Y-34705225D01*
X219370149Y-34808297D01*
X219345307Y-34939431D01*
X219340400Y-34961907D01*
X219310080Y-35118002D01*
X219301829Y-35222209D01*
X219314707Y-35290283D01*
X219320122Y-35301677D01*
X219386969Y-35362953D01*
X219481240Y-35368543D01*
X219506763Y-35356821D01*
X220078680Y-35356821D01*
X220108526Y-35444439D01*
X220169798Y-35476029D01*
X220253902Y-35454753D01*
X220352242Y-35383771D01*
X220456221Y-35266243D01*
X220500921Y-35201570D01*
X220542330Y-35150891D01*
X220595099Y-35131857D01*
X220684897Y-35137504D01*
X220719051Y-35142391D01*
X220883256Y-35167015D01*
X220816593Y-35381205D01*
X220776371Y-35513240D01*
X220756895Y-35595266D01*
X220757654Y-35645484D01*
X220778137Y-35682097D01*
X220807280Y-35712725D01*
X220890659Y-35750281D01*
X220995050Y-35726204D01*
X221084479Y-35665184D01*
X221129595Y-35617251D01*
X221167327Y-35552987D01*
X221202324Y-35459493D01*
X221239237Y-35323875D01*
X221241258Y-35315013D01*
X221567053Y-35315013D01*
X221580494Y-35540732D01*
X221632837Y-35737392D01*
X221641745Y-35757982D01*
X221736971Y-35898245D01*
X221867778Y-35998175D01*
X222017046Y-36050504D01*
X222167652Y-36047968D01*
X222251881Y-36016903D01*
X222338897Y-35943255D01*
X222374373Y-35856067D01*
X222360513Y-35773706D01*
X222299523Y-35714540D01*
X222213370Y-35696202D01*
X222110216Y-35672153D01*
X222036005Y-35624754D01*
X221984884Y-35528264D01*
X221965114Y-35384020D01*
X221974668Y-35207437D01*
X222011517Y-35013935D01*
X222073633Y-34818928D01*
X222158990Y-34637836D01*
X222167820Y-34622614D01*
X222251167Y-34527606D01*
X222346787Y-34490163D01*
X222439636Y-34515007D01*
X222460018Y-34530927D01*
X222560094Y-34587599D01*
X222649949Y-34582029D01*
X222715090Y-34523295D01*
X222741021Y-34420475D01*
X222735350Y-34358479D01*
X222678692Y-34229641D01*
X222572736Y-34139218D01*
X222431015Y-34091606D01*
X222267062Y-34091201D01*
X222094409Y-34142400D01*
X222084449Y-34147028D01*
X221946566Y-34248390D01*
X221824131Y-34406038D01*
X221721053Y-34605749D01*
X221641242Y-34833298D01*
X221588605Y-35074460D01*
X221567053Y-35315013D01*
X221241258Y-35315013D01*
X221282716Y-35133236D01*
X221292283Y-35088889D01*
X221345986Y-34743240D01*
X221369530Y-34356573D01*
X221370081Y-34320816D01*
X221370743Y-34130816D01*
X221366258Y-33996634D01*
X221354764Y-33902711D01*
X221334401Y-33833494D01*
X221304885Y-33776019D01*
X221215761Y-33684208D01*
X221107324Y-33656546D01*
X220993853Y-33694123D01*
X220930256Y-33747411D01*
X220889356Y-33803669D01*
X220820670Y-33912399D01*
X220730373Y-34063205D01*
X220624635Y-34245695D01*
X220509631Y-34449475D01*
X220458195Y-34542277D01*
X220321771Y-34792825D01*
X220219012Y-34989041D01*
X220146714Y-35137797D01*
X220101678Y-35245963D01*
X220080701Y-35320412D01*
X220078680Y-35356821D01*
X219506763Y-35356821D01*
X219587346Y-35319811D01*
X219641994Y-35273488D01*
X219699894Y-35188638D01*
X219768809Y-35042723D01*
X219845551Y-34844700D01*
X219926932Y-34603529D01*
X220009764Y-34328165D01*
X220090861Y-34027569D01*
X220104435Y-33973846D01*
X220144206Y-33793485D01*
X220156488Y-33666289D01*
X220139418Y-33578727D01*
X220091130Y-33517269D01*
X220036665Y-33481948D01*
X219951078Y-33460188D01*
X219866973Y-33492141D01*
X219779208Y-33582302D01*
X219682644Y-33735165D01*
X219628116Y-33839187D01*
X219473087Y-34148874D01*
X219297309Y-34083303D01*
X219121532Y-34017732D01*
X219123002Y-33758444D01*
X219107072Y-33538075D01*
X219057036Y-33376598D01*
X218973761Y-33275802D01*
X218870839Y-33238421D01*
X218790190Y-33242383D01*
X218726938Y-33278711D01*
X218675080Y-33356827D01*
X218628616Y-33486150D01*
X218581543Y-33676099D01*
X218576090Y-33701006D01*
X218528439Y-33901636D01*
X218468270Y-34128447D01*
X218406665Y-34340181D01*
X218391047Y-34389960D01*
X218323688Y-34632287D01*
X218295631Y-34817416D01*
X216951393Y-34817416D01*
X217073872Y-34517663D01*
X217208391Y-34191872D01*
X217336736Y-33884430D01*
X217456105Y-33601998D01*
X217563699Y-33351234D01*
X217656716Y-33138798D01*
X217732358Y-32971350D01*
X217787822Y-32855548D01*
X217820310Y-32798053D01*
X217824029Y-32793945D01*
X217915703Y-32741194D01*
X218061084Y-32684453D01*
X218243037Y-32629022D01*
X218444427Y-32580203D01*
X218620854Y-32547430D01*
X218840289Y-32526102D01*
X219109952Y-32520293D01*
X219410562Y-32528979D01*
G37*
G36*
X221070960Y-34358861D02*
G01*
X221064921Y-34522693D01*
X221048959Y-34644975D01*
X221025063Y-34714675D01*
X221004764Y-34726293D01*
X220956367Y-34717882D01*
X220874964Y-34705682D01*
X220790985Y-34687475D01*
X220743730Y-34666379D01*
X220752008Y-34628496D01*
X220794828Y-34548145D01*
X220863945Y-34440082D01*
X220895558Y-34394585D01*
X221071448Y-34146836D01*
X221070960Y-34358861D01*
G37*
G36*
X228675011Y-34959341D02*
G01*
X228687469Y-34969952D01*
X228737995Y-35033268D01*
X228752179Y-35075172D01*
X228722618Y-35140957D01*
X228648059Y-35214768D01*
X228549692Y-35277715D01*
X228502520Y-35297738D01*
X228441930Y-35314012D01*
X228407626Y-35297928D01*
X228383769Y-35234757D01*
X228369157Y-35173699D01*
X228349902Y-35069098D01*
X228362479Y-35009188D01*
X228420255Y-34972143D01*
X228510011Y-34943725D01*
X228605762Y-34929581D01*
X228675011Y-34959341D01*
G37*
G36*
X228469271Y-34457839D02*
G01*
X228527457Y-34495864D01*
X228525106Y-34563130D01*
X228480048Y-34629112D01*
X228387639Y-34717835D01*
X228320400Y-34744856D01*
X228268265Y-34710625D01*
X228231023Y-34640298D01*
X228200340Y-34553774D01*
X228191068Y-34498977D01*
X228193409Y-34492572D01*
X228236462Y-34477555D01*
X228323208Y-34460801D01*
X228355611Y-34456093D01*
X228469271Y-34457839D01*
G37*
%TO.C,U4*%
D13*
X207150000Y-77090000D02*
X210910000Y-77090000D01*
X207150000Y-83910000D02*
X210910000Y-83910000D01*
X210910000Y-77090000D02*
X210910000Y-78350000D01*
X210910000Y-83910000D02*
X210910000Y-82650000D01*
X205870000Y-77190000D02*
X205630000Y-76860000D01*
X206110000Y-76860000D01*
X205870000Y-77190000D01*
G36*
X205870000Y-77190000D02*
G01*
X205630000Y-76860000D01*
X206110000Y-76860000D01*
X205870000Y-77190000D01*
G37*
%TO.C,R1*%
X221929879Y-81120000D02*
X222265121Y-81120000D01*
X221929879Y-81880000D02*
X222265121Y-81880000D01*
%TO.C,C1*%
X222451665Y-76640000D02*
X222683335Y-76640000D01*
X222451665Y-77360000D02*
X222683335Y-77360000D01*
%TO.C,P1*%
X184800000Y-78500000D02*
X184800000Y-76600000D01*
X184800000Y-82400000D02*
X184800000Y-80400000D01*
X194200000Y-76600000D02*
X184800000Y-76600000D01*
X194200000Y-78500000D02*
X194200000Y-76600000D01*
X194200000Y-82400000D02*
X194200000Y-80400000D01*
%TO.C,U1*%
X199130000Y-46000000D02*
X199130000Y-52160000D01*
X199130000Y-46000000D02*
X217370000Y-46000000D01*
X199130000Y-70960000D02*
X199130000Y-71740000D01*
X199130000Y-71740000D02*
X200130000Y-71740000D01*
X217370000Y-46000000D02*
X217370000Y-52415000D01*
X217370000Y-70960000D02*
X217370000Y-71740000D01*
X217370000Y-71740000D02*
X216370000Y-71740000D01*
X199125000Y-52885000D02*
X198625000Y-52885000D01*
X199125000Y-52385000D01*
X199125000Y-52885000D01*
G36*
X199125000Y-52885000D02*
G01*
X198625000Y-52885000D01*
X199125000Y-52385000D01*
X199125000Y-52885000D01*
G37*
%TO.C,U2*%
X227850000Y-66315000D02*
X227850000Y-66090000D01*
X227850000Y-70150000D02*
X227850000Y-69625000D01*
X227850000Y-70150000D02*
X228375000Y-70150000D01*
X228375000Y-65850000D02*
X228150000Y-65850000D01*
X232150000Y-65850000D02*
X231625000Y-65850000D01*
X232150000Y-65850000D02*
X232150000Y-66375000D01*
X232150000Y-70150000D02*
X231625000Y-70150000D01*
X232150000Y-70150000D02*
X232150000Y-69625000D01*
X227850000Y-65850000D02*
X227610000Y-65520000D01*
X228090000Y-65520000D01*
X227850000Y-65850000D01*
G36*
X227850000Y-65850000D02*
G01*
X227610000Y-65520000D01*
X228090000Y-65520000D01*
X227850000Y-65850000D01*
G37*
%TO.C,R2*%
X222034879Y-84110000D02*
X222370121Y-84110000D01*
X222034879Y-84870000D02*
X222370121Y-84870000D01*
%TO.C,J1*%
X231940000Y-53590000D02*
X231940000Y-61410000D01*
X231940000Y-55190000D02*
X232860000Y-55190000D01*
X231940000Y-61410000D02*
X238060000Y-61410000D01*
X232860000Y-53590000D02*
X231940000Y-53590000D01*
X232860000Y-55190000D02*
X232860000Y-53590000D01*
X233140000Y-55190000D02*
X232860000Y-55190000D01*
X233140000Y-55190000D02*
X233140000Y-53975000D01*
X233200000Y-59150000D02*
X233200000Y-61410000D01*
X233700000Y-59150000D02*
X233700000Y-61410000D01*
X234500000Y-57050000D02*
X235500000Y-57050000D01*
X234500000Y-61410000D02*
X234500000Y-57050000D01*
X235500000Y-57050000D02*
X235500000Y-61410000D01*
X237140000Y-53590000D02*
X237140000Y-55190000D01*
X237140000Y-55190000D02*
X236860000Y-55190000D01*
X238060000Y-53590000D02*
X237140000Y-53590000D01*
X238060000Y-55190000D02*
X237140000Y-55190000D01*
X238060000Y-61410000D02*
X238060000Y-53590000D01*
X232700000Y-57550000D02*
X233700000Y-57550000D01*
X233700000Y-59150000D01*
X232700000Y-59150000D01*
X232700000Y-57550000D01*
X236300000Y-57550000D02*
X237300000Y-57550000D01*
X237300000Y-59150000D01*
X236300000Y-59150000D01*
X236300000Y-57550000D01*
%TO.C,U3*%
X186965000Y-54575000D02*
X191085000Y-54575000D01*
X186965000Y-54670000D02*
X186965000Y-54575000D01*
X186965000Y-59695000D02*
X186965000Y-59600000D01*
X191085000Y-54575000D02*
X191085000Y-54670000D01*
X191085000Y-59600000D02*
X191085000Y-59695000D01*
X191085000Y-59695000D02*
X186965000Y-59695000D01*
X191865000Y-59935000D02*
X191385000Y-59935000D01*
X191625000Y-59605000D01*
X191865000Y-59935000D01*
G36*
X191865000Y-59935000D02*
G01*
X191385000Y-59935000D01*
X191625000Y-59605000D01*
X191865000Y-59935000D01*
G37*
%TD*%
M02*
