%TF.GenerationSoftware,KiCad,Pcbnew,10.0.1*%
%TF.CreationDate,2026-05-10T15:42:31+10:00*%
%TF.ProjectId,Clipoz,436c6970-6f7a-42e6-9b69-6361645f7063,rev?*%
%TF.SameCoordinates,Original*%
%TF.FileFunction,Copper,L2,Bot*%
%TF.FilePolarity,Positive*%
%FSLAX46Y46*%
G04 Gerber Fmt 4.6, Leading zero omitted, Abs format (unit mm)*
G04 Created by KiCad (PCBNEW 10.0.1) date 2026-05-10 15:42:31*
%MOMM*%
%LPD*%
G01*
G04 APERTURE LIST*
G04 Aperture macros list*
%AMRoundRect*
0 Rectangle with rounded corners*
0 $1 Rounding radius*
0 $2 $3 $4 $5 $6 $7 $8 $9 X,Y pos of 4 corners*
0 Add a 4 corners polygon primitive as box body*
4,1,4,$2,$3,$4,$5,$6,$7,$8,$9,$2,$3,0*
0 Add four circle primitives for the rounded corners*
1,1,$1+$1,$2,$3*
1,1,$1+$1,$4,$5*
1,1,$1+$1,$6,$7*
1,1,$1+$1,$8,$9*
0 Add four rect primitives between the rounded corners*
20,1,$1+$1,$2,$3,$4,$5,0*
20,1,$1+$1,$4,$5,$6,$7,0*
20,1,$1+$1,$6,$7,$8,$9,0*
20,1,$1+$1,$8,$9,$2,$3,0*%
G04 Aperture macros list end*
%TA.AperFunction,ComponentPad*%
%ADD10O,1.000000X2.100000*%
%TD*%
%TA.AperFunction,ComponentPad*%
%ADD11O,1.000000X1.600000*%
%TD*%
%TA.AperFunction,HeatsinkPad*%
%ADD12C,0.600000*%
%TD*%
%TA.AperFunction,ComponentPad*%
%ADD13RoundRect,0.250000X-0.350000X-0.625000X0.350000X-0.625000X0.350000X0.625000X-0.350000X0.625000X0*%
%TD*%
%TA.AperFunction,ComponentPad*%
%ADD14O,1.200000X1.750000*%
%TD*%
%TA.AperFunction,HeatsinkPad*%
%ADD15C,0.500000*%
%TD*%
%TA.AperFunction,HeatsinkPad*%
%ADD16R,1.900000X2.900000*%
%TD*%
%TA.AperFunction,ViaPad*%
%ADD17C,0.600000*%
%TD*%
%TA.AperFunction,Conductor*%
%ADD18C,0.200000*%
%TD*%
G04 APERTURE END LIST*
D10*
%TO.P,P1,SH,SHIELD_SH*%
%TO.N,unconnected-(P1-SHIELD-PadSH)*%
X193820000Y-83630000D03*
D11*
%TO.N,unconnected-(P1-SHIELD-PadSH)_3*%
X193820000Y-79450000D03*
D10*
%TO.N,unconnected-(P1-SHIELD-PadSH)_2*%
X185180000Y-83630000D03*
D11*
%TO.N,unconnected-(P1-SHIELD-PadSH)_1*%
X185180000Y-79450000D03*
%TD*%
D12*
%TO.P,U1,39,GND_39*%
%TO.N,GND*%
X206045000Y-60187500D03*
X206045000Y-61712500D03*
X206807500Y-59425000D03*
X206807500Y-60950000D03*
X206807500Y-62475000D03*
X207570000Y-60187500D03*
X207570000Y-61712500D03*
X208332500Y-59425000D03*
X208332500Y-60950000D03*
X208332500Y-62475000D03*
X209095000Y-60187500D03*
X209095000Y-61712500D03*
%TD*%
D13*
%TO.P,J1,1,Pin_1_1*%
%TO.N,/VBAT*%
X234000000Y-55050000D03*
D14*
%TO.P,J1,2,Pin_2_2*%
%TO.N,GND*%
X236000000Y-55050000D03*
%TD*%
D15*
%TO.P,U3,9,EPAD_9*%
%TO.N,unconnected-(U3-EPAD-Pad9)_4*%
X189725000Y-58335000D03*
%TO.N,unconnected-(U3-EPAD-Pad9)_2*%
X189725000Y-57135000D03*
%TO.N,unconnected-(U3-EPAD-Pad9)_6*%
X189725000Y-55935000D03*
D16*
%TO.N,unconnected-(U3-EPAD-Pad9)_3*%
X189025000Y-57135000D03*
D15*
%TO.N,unconnected-(U3-EPAD-Pad9)_1*%
X188325000Y-58335000D03*
%TO.N,unconnected-(U3-EPAD-Pad9)_5*%
X188325000Y-57135000D03*
%TO.N,unconnected-(U3-EPAD-Pad9)*%
X188325000Y-55935000D03*
%TD*%
D17*
%TO.N,GND*%
X225000000Y-83500000D03*
X224000000Y-80000000D03*
%TO.N,VBUS*%
X191500000Y-53500000D03*
X186000000Y-61000000D03*
%TO.N,/SCL*%
X211500000Y-70000000D03*
X219500000Y-65000000D03*
%TO.N,+3.3V*%
X220500000Y-80500000D03*
X224000000Y-76000000D03*
%TO.N,/MPU_INT*%
X202000000Y-64000000D03*
X232251472Y-70400000D03*
%TO.N,/SDA*%
X210000000Y-69000000D03*
X219000000Y-66500000D03*
%TO.N,GND*%
X202500000Y-69000000D03*
X212000000Y-66500000D03*
%TO.N,+3.3V*%
X197000000Y-57500000D03*
X202000000Y-78500000D03*
%TO.N,/VBAT*%
X202500000Y-83000000D03*
X189500000Y-71000000D03*
%TO.N,Net-(U3-PROG)*%
X201500000Y-74500000D03*
X228500000Y-84500000D03*
%TD*%
%TO.N,GND*%
D18*
X224000000Y-80000000D02*
X225000000Y-81000000D01*
X225000000Y-81000000D02*
X225000000Y-83500000D01*
%TO.N,VBUS*%
X185000000Y-53500000D02*
X191500000Y-53500000D01*
X182500000Y-61000000D02*
X182500000Y-56000000D01*
X186000000Y-61000000D02*
X182500000Y-61000000D01*
X182500000Y-56000000D02*
X185000000Y-53500000D01*
%TO.N,/SCL*%
X216348529Y-70000000D02*
X211500000Y-70000000D01*
X219600000Y-66748529D02*
X216348529Y-70000000D01*
X219600000Y-65100000D02*
X219600000Y-66748529D01*
X219500000Y-65000000D02*
X219600000Y-65100000D01*
%TO.N,+3.3V*%
X224000000Y-76000000D02*
X220500000Y-79500000D01*
X220500000Y-79500000D02*
X220500000Y-80500000D01*
%TO.N,/MPU_INT*%
X232251472Y-70400000D02*
X225851472Y-64000000D01*
X225851472Y-64000000D02*
X202000000Y-64000000D01*
%TO.N,/SDA*%
X216500000Y-69000000D02*
X210000000Y-69000000D01*
X219000000Y-66500000D02*
X216500000Y-69000000D01*
%TO.N,GND*%
X205000000Y-66500000D02*
X202500000Y-69000000D01*
X212000000Y-66500000D02*
X205000000Y-66500000D01*
%TO.N,+3.3V*%
X202000000Y-78500000D02*
X197000000Y-73500000D01*
X197000000Y-73500000D02*
X197000000Y-57500000D01*
%TO.N,/VBAT*%
X190500000Y-71000000D02*
X202500000Y-83000000D01*
X189500000Y-71000000D02*
X190500000Y-71000000D01*
%TO.N,Net-(U3-PROG)*%
X229000000Y-84000000D02*
X228500000Y-84500000D01*
X229000000Y-80000000D02*
X229000000Y-84000000D01*
X223500000Y-74500000D02*
X229000000Y-80000000D01*
X201500000Y-74500000D02*
X223500000Y-74500000D01*
%TD*%
M02*
